<svg width="201" height="21" viewBox="0 0 201 21" fill="none" xmlns="http://www.w3.org/2000/svg">
<g clip-path="url(#clip0_669_20443)">
<path d="M79.2962 1.86646H90.3271L89.9307 3.683H85.5837L81.7444 20.512H79.4005L83.2398 3.683H78.8928L79.2962 1.86646Z" fill="#323942"/>
<path d="M99.5287 14.9456H88.8664V15.1921C88.8664 17.4822 90.334 18.9484 92.5944 18.9484C94.2984 18.9484 95.7103 18.131 96.4337 16.788H98.9097C97.9499 19.1236 95.606 20.765 92.5944 20.765C88.9151 20.765 86.6755 18.5527 86.6755 15.218C86.6755 11.3384 89.395 7.83508 93.7907 7.83508C97.47 7.83508 99.6817 10.0474 99.6817 13.382C99.6817 13.901 99.6261 14.4525 99.5218 14.9456H99.5287ZM89.0542 13.5507H97.4769V13.4015C97.4769 11.04 96.0094 9.64514 93.7976 9.64514C91.3425 9.64514 89.6106 11.3125 89.0542 13.5507Z" fill="#323942"/>
<path d="M111.68 13.0317C111.652 10.9427 110.08 9.65167 107.896 9.65167C104.78 9.65167 102.888 12.3635 102.888 15.1986C102.888 17.4888 104.384 18.955 106.7 18.955C109.016 18.955 110.803 17.3914 111.367 15.3024H113.683C112.966 18.41 110.407 20.7715 106.7 20.7715C102.993 20.7715 100.677 18.5592 100.677 15.2246C100.677 11.3449 103.424 7.84161 107.896 7.84161C111.492 7.84161 113.864 9.90469 113.891 13.0382H111.68V13.0317Z" fill="#323942"/>
<path d="M116.806 20.512H114.49L118.725 1.86646H121.041L119.177 10.1447C120.325 8.60064 121.952 7.8351 123.712 7.8351C126.668 7.8351 128.539 9.92412 127.683 13.6026L126.112 20.512H123.796L125.367 13.674C125.979 10.9362 124.832 9.54784 122.676 9.54784C120.52 9.54784 118.996 10.8908 118.357 13.6999L116.813 20.512H116.806Z" fill="#323942"/>
<path d="M136.767 1.86646H139.966L144.793 20.512H142.637L141.413 15.5878H135.334L134.11 20.512H131.954L136.781 1.86646H136.767ZM140.954 13.7778L138.367 3.35862L135.779 13.7778H140.947H140.954Z" fill="#323942"/>
<path d="M160.227 20.512H157.591L154.287 9.74893L151.011 20.512H148.347L144.508 8.0816H146.56L149.704 18.8446L152.959 8.0816H155.622L158.877 18.8446L162.049 8.0816H164.101L160.234 20.512H160.227Z" fill="#323942"/>
<path d="M173.984 18.2218C173.08 19.9865 171.237 20.7585 169.241 20.7585C166.786 20.7585 164.657 19.6621 164.657 17.2811C164.657 11.8574 173.956 14.8677 173.956 11.6887C173.956 10.2225 172.544 9.42456 170.653 9.42456C168.761 9.42456 167.238 10.3718 167.238 12.2078H165.054C165.054 9.04827 167.773 7.83508 170.653 7.83508C173.532 7.83508 176.092 8.9315 176.092 11.7601V20.512H173.984V18.2218ZM169.637 19.0912C171.877 19.0912 173.984 17.8001 173.984 15.3867V14.193C171.668 15.4127 166.841 14.5433 166.841 17.1514C166.841 18.4424 167.989 19.0912 169.637 19.0912Z" fill="#323942"/>
<path d="M181.106 20.512H178.971V8.08161H181.106V10.5664C182.038 8.74984 183.742 7.83508 185.877 7.83508C186.225 7.83508 186.594 7.86103 186.893 7.95835V10.0993C186.49 9.95006 185.989 9.87221 185.453 9.87221C182.706 9.87221 181.106 11.3384 181.106 14.3941V20.512Z" fill="#323942"/>
<path d="M198.272 18.2737C197.207 19.8178 195.524 20.7585 193.528 20.7585C189.877 20.7585 187.129 18.0986 187.129 14.2968C187.129 10.495 189.877 7.8351 193.528 7.8351C195.524 7.8351 197.207 8.7823 198.272 10.3199V1.86646H200.407V20.512H198.272V18.2737ZM189.265 14.2968C189.265 17.08 191.212 18.9485 193.772 18.9485C196.331 18.9485 198.279 17.0865 198.279 14.2968C198.279 11.5071 196.331 9.64515 193.772 9.64515C191.212 9.64515 189.265 11.5071 189.265 14.2968Z" fill="#323942"/>
<path d="M25.5465 18.8317C24.7467 20.1227 23.3904 20.8429 21.7977 20.8429C19.0087 20.8429 16.9082 19.1042 16.9082 15.6138V8.19843H20.1006V15.017C20.1006 17.0995 21.137 18.2413 22.841 18.2413C24.545 18.2413 25.5535 17.0995 25.5535 15.017V8.19843H28.7459V20.5963H25.5535V18.8382L25.5465 18.8317Z" fill="#323942"/>
<path d="M33.5171 20.5963H30.3247V8.19844H33.5171V10.2096C34.4769 8.7434 36.0419 7.9519 37.9824 7.9519C38.2188 7.9519 38.4901 7.9519 38.6501 8.00381V11.2541C38.2745 11.1309 37.8015 11.053 37.266 11.053C34.9012 11.053 33.5171 12.1948 33.5171 14.2774V20.5963Z" fill="#323942"/>
<path d="M38.7822 14.3942C38.7822 10.5989 41.6825 7.94543 45.5635 7.94543C49.4445 7.94543 52.3379 10.5989 52.3379 14.3942C52.3379 18.1894 49.4376 20.8429 45.5635 20.8429C41.6895 20.8429 38.7822 18.1894 38.7822 14.3942ZM49.1454 14.3942C49.1454 12.1624 47.6014 10.6767 45.5566 10.6767C43.5118 10.6767 41.9677 12.1624 41.9677 14.3942C41.9677 16.6259 43.5118 18.1116 45.5566 18.1116C47.6014 18.1116 49.1454 16.6259 49.1454 14.3942Z" fill="#323942"/>
<path d="M56.7266 20.5963H53.5342V8.19844H56.7266V10.2096C57.6864 8.7434 59.2513 7.9519 61.1918 7.9519C61.4283 7.9519 61.6996 7.9519 61.8595 8.00381V11.2541C61.484 11.1309 61.011 11.053 60.4755 11.053C58.1107 11.053 56.7266 12.1948 56.7266 14.2774V20.5963Z" fill="#323942"/>
<path d="M70.5465 18.7603C69.698 20.2201 68.1539 20.8429 66.3178 20.8429C64.0295 20.8429 61.8525 19.7789 61.8525 17.2747C61.8525 11.9418 70.4909 14.3228 70.4909 11.8445C70.4909 10.8778 69.4267 10.3069 68.0426 10.3069C66.5821 10.3069 65.5736 11.0271 65.5736 12.4154H62.249C62.249 9.19105 65.0658 7.9519 68.0426 7.9519C71.0195 7.9519 73.6763 9.06778 73.6763 11.9678V20.5963H70.5396V18.7603H70.5465ZM66.9855 18.3646C68.8425 18.3646 70.5465 17.372 70.5465 15.4906V14.9196C68.4182 15.7371 65.1215 15.4906 65.1215 17.08C65.1215 17.9494 65.9213 18.3711 66.9855 18.3711V18.3646Z" fill="#323942"/>
<path d="M16.8735 20.5963L15.0582 14.8483H1.80164L0.0141602 20.5963H3.40133L4.6324 17.0865H12.4222L13.5698 20.5963H16.8735Z" fill="#323942"/>
<path d="M10.6348 0.68573H6.17656L2.38599 12.876L14.4741 12.902L10.6348 0.68573ZM8.42308 3.2743L10.6905 10.6637H6.37131L8.42308 3.2743Z" fill="#323942"/>
</g>
<defs>
<clipPath id="clip0_669_20443">
<rect width="200.386" height="20.1571" fill="white" transform="translate(0.0141602 0.68573)"/>
</clipPath>
</defs>
</svg>
