<svg width="521" height="325" viewBox="0 0 521 325" fill="none" xmlns="http://www.w3.org/2000/svg">
<g clip-path="url(#clip0_669_20469)">
<path d="M88.9776 98.9651C88.9776 98.9651 96.1146 95.322 107.359 99.8766C118.603 104.431 115.957 119.515 114.88 121.488C113.803 123.462 112.851 124.892 114.048 126.855C115.243 128.818 116.456 129.328 115.592 131.076C114.727 132.824 112.595 133.098 112.595 133.098C112.595 133.098 108.079 143.108 104.678 143.054C101.277 142.998 99.8835 142.619 99.8835 142.619L94.4237 150.058C94.4237 150.058 89.5121 147.663 87.0795 144.229C84.6442 140.796 84.2515 137.93 84.2515 137.93L58.3108 150.537C58.3108 150.537 51.1602 148.682 49.2431 142.675C47.3259 136.669 48.8094 133.297 48.8094 133.297C48.8094 133.297 39.7117 128.984 44.2906 117.592C48.8667 106.2 53.7319 104.144 53.7319 104.144C53.7319 104.144 48.7794 95.0316 59.0908 88.1647C69.4021 81.3005 82.8497 80.959 86.9568 88.1647C91.0639 95.3703 88.9803 98.9624 88.9803 98.9624L88.9776 98.9651Z" fill="white"/>
<path d="M69.3167 302.722C69.3167 302.722 59.4717 321.018 61.0071 322.992C62.5424 324.965 80.4435 324.328 80.4435 324.328C80.4435 324.328 97.619 325.686 96.9236 322.459C96.2282 319.233 86.5686 317.147 84.1606 314.829C81.7525 312.514 82.2543 307.618 82.2543 307.618L69.3167 302.722Z" fill="white"/>
<path d="M129.045 305.87C129.045 305.87 129.918 322.406 134.333 323.726C138.748 325.046 170.41 325.29 170.102 323.422C169.139 317.587 163.164 317.579 157.964 313.565C152.763 309.554 143.42 303.023 143.42 303.023L129.045 305.867V305.87Z" fill="white"/>
<path d="M172.577 112.546C172.577 112.546 168.429 106.757 164.766 109.048C161.103 111.338 162.451 120.144 168.63 121.453C170.381 124.319 164.826 139.333 164.826 139.333C164.826 139.333 169.037 145.727 178.069 146.738C187.104 147.748 187.925 143.245 187.925 143.245V135.198L172.577 112.54V112.546Z" fill="white"/>
<path d="M282.335 171.995C282.335 171.995 282.231 159.832 278.536 153.97C274.841 148.109 266.987 142.465 266.37 143.452C265.754 144.439 270.254 153.615 270.254 153.615C270.254 153.615 251.123 146.334 249.893 147.474C248.663 148.614 252.353 151.575 252.353 151.575C252.353 151.575 243.476 151.093 243.58 153.169C243.683 155.245 248.611 157.468 248.611 157.468C248.611 157.468 245.581 156.966 245.633 159.345C245.685 161.724 259.135 165.217 259.135 165.217L266.528 171.694L282.34 171.998L282.335 171.995Z" fill="white"/>
<path d="M285.928 174.041C285.928 174.041 294.478 159.592 301.394 155.218C308.31 150.841 349.7 143.554 354.519 147.501C359.338 151.448 366.008 174.044 367.552 182.204C369.093 190.364 373.001 204.488 368.839 215.219C364.677 225.949 289.114 220.279 289.114 220.279L285.931 174.041H285.928Z" fill="white"/>
<path d="M380.022 193.784C380.022 193.784 377.298 187.842 373.122 184.411C368.95 180.981 365.236 177.908 364.158 178.633C363.081 179.359 366.517 184.901 366.517 184.901C366.517 184.901 350.22 179.007 349.604 181.08C348.987 183.153 357.3 186.415 357.3 186.415C357.3 186.415 347.294 184.737 346.369 187.361C345.445 189.985 350.528 193.631 352.838 194.464C346.601 195.223 346.061 196.363 348.218 197.578C350.375 198.793 372.782 204.485 376.556 202.399C380.33 200.312 380.022 193.782 380.022 193.782V193.784Z" fill="white"/>
<path d="M382.949 176.779C382.949 176.779 378.263 173.869 374.216 167.656C370.167 161.442 367.134 151.042 368.342 150.056C369.55 149.069 372.553 154.296 372.553 154.296C372.553 154.296 370.674 143.804 371.961 142.527C373.248 141.25 376.447 147.316 376.447 147.316C376.447 147.316 375.239 140.704 376.668 139.876C378.097 139.048 380.407 146.367 380.407 146.367C380.407 146.367 379.199 139.581 381.536 139.427C383.873 139.274 387.645 155.901 387.645 155.901C387.645 155.901 392.848 146.391 394.438 149.123C396.028 151.854 391.607 162.01 391.607 162.01L389.262 174.348L382.949 176.779Z" fill="white"/>
<path d="M421.756 169.11C421.756 169.11 398.913 159.899 396.601 168.099C395.567 171.769 404.507 173.667 415.055 171.541C407.894 175.437 405.327 181.36 409.947 182.4C413.285 183.153 421.753 169.11 421.753 169.11H421.756Z" fill="white"/>
<path d="M447.99 136.72C447.99 136.72 453.482 133.128 452.405 125.989C451.328 118.853 448.042 118.13 448.042 118.13C448.042 118.13 450.403 112.858 447.63 108.986C444.859 105.114 441.546 106.784 441.546 106.784C441.546 106.784 442.162 100.256 436.157 99.4948C430.152 98.7339 426.421 102.189 426.421 102.189C426.421 102.189 425.068 97.2927 419.368 97.9757C413.671 98.6586 411.771 104.942 411.771 104.942C411.771 104.942 409.019 101.242 404.609 106.405C400.197 111.567 405.204 119.31 405.204 119.31C405.204 119.31 405.82 127.855 405.051 128.974C404.282 130.092 400.199 131.533 399.891 132.824C399.583 134.114 401.585 137.757 401.585 137.757C401.585 137.757 401.058 150.209 407.404 152.257C413.751 154.306 417.369 152.637 417.369 152.637L420.836 156.508L447.993 136.72H447.99Z" fill="white"/>
<path d="M433.794 223.769L503.431 222.403C503.431 222.403 507.176 238.497 502.553 244.773C497.933 251.048 461.692 249.833 461.692 249.833L441.364 251.553L453.353 309.718L428.994 311.753L414.158 277.897L393.827 313.805L372.49 308.927C372.49 308.927 393.912 238.957 408.442 231.668C422.972 224.379 433.794 223.769 433.794 223.769Z" fill="white"/>
<path d="M308.977 255.401L291.856 324.328" stroke="black" stroke-width="1.1097" stroke-linecap="round" stroke-linejoin="round"/>
<path d="M341.013 255.401L358.132 324.328" stroke="black" stroke-width="1.1097" stroke-linecap="round" stroke-linejoin="round"/>
<path d="M307.481 262.724L350.36 293.074" stroke="black" stroke-width="1.1097" stroke-linecap="round" stroke-linejoin="round"/>
<path d="M342.608 262.356L299.729 292.703" stroke="black" stroke-width="1.1097" stroke-linecap="round" stroke-linejoin="round"/>
<path d="M353.463 248.91H295.148C293.33 248.91 291.857 250.363 291.857 252.155V252.158C291.857 253.95 293.33 255.403 295.148 255.403H353.463C355.281 255.403 356.755 253.95 356.755 252.158V252.155C356.755 250.363 355.281 248.91 353.463 248.91Z" fill="white" stroke="black" stroke-width="1.1097" stroke-linecap="round" stroke-linejoin="round"/>
<path d="M430.948 311.533L453.346 309.72L454.775 324.328H411.307C411.307 324.328 410.612 322.177 413.429 319.685C416.246 317.192 429.8 315.496 430.948 311.533Z" fill="#C7C7C7"/>
<path d="M372.482 308.927C372.482 308.927 366.739 313.457 357.666 315.495C348.592 317.533 344.573 324.328 344.573 324.328H391.444L393.822 312.323L372.485 308.924L372.482 308.927Z" fill="#C7C7C7"/>
<path d="M261.551 184C126.334 119.163 315.091 18.8021 361.709 58.2961C385.571 78.5096 319.362 121.217 268.669 123.602C185.227 127.527 147.093 60.482 209.864 18.8531C237.495 0.527073 282.316 3.40396 303.506 12.6907" stroke="#A2E52F" stroke-width="8.87763" stroke-miterlimit="10"/>
<path d="M175.381 93.0875L198.398 102.261C198.398 102.261 198.008 128.645 196.285 131.138C194.561 133.63 178.463 130.409 172.913 125.532C167.363 120.655 175.378 93.0875 175.378 93.0875H175.381Z" fill="white"/>
<path d="M295.131 158.444C282.864 149.082 297.473 141.11 298.671 138.265C300.675 133.498 295.251 125.241 295.84 119.657C296.429 114.075 303.847 102.95 315.538 100.468C324.857 98.4917 336.18 102.213 339.248 111.4C342.316 120.587 341.607 124.542 347.269 127.798C352.93 131.054 368.974 139.545 359.772 149.313" fill="white"/>
<path d="M221.626 310.433C221.626 310.433 223.044 323.347 224.958 324.328C226.873 325.309 264.396 324.328 264.396 324.328C264.396 324.328 266.081 321.309 263.095 317.91C260.109 314.512 242.131 308.79 242.131 308.79L221.626 310.43V310.433Z" fill="black"/>
<path d="M206.081 228.073H224.772C224.772 228.073 229.76 228.605 230.459 236.341C231.664 249.703 192.191 310.339 187.978 311.898C183.767 313.457 164.47 310.062 164.47 308.024C164.47 305.986 187.978 250.045 187.978 250.045L206.081 228.076V228.073Z" fill="#C7C7C7"/>
<path d="M124.467 228.374C124.467 228.374 119.973 246.066 139.319 250.494C158.666 254.922 191.812 251.626 191.812 251.626C191.812 251.626 193.189 262.044 202.227 279.257C211.262 296.47 214.785 309.758 224.434 311.266C234.082 312.777 241.279 311.718 243.884 306.435C246.488 301.149 228.11 247.888 223.4 238.943C218.592 229.81 206.086 228.073 206.086 228.073L124.467 228.374Z" fill="#C7C7C7"/>
<path d="M198.4 106.224C198.4 106.224 197.917 119.337 197.391 122.789C196.567 130.49 190.939 134.802 184.68 134.802C178.89 134.802 169.585 130.866 169.833 121.73C160.795 119.125 161.87 110.93 164.763 109.047C167.654 107.165 171.352 112.406 171.352 112.406" stroke="black" stroke-width="1.1097" stroke-linecap="round" stroke-linejoin="round"/>
<path d="M169.83 121.73L166.236 136.803" stroke="black" stroke-width="1.1097" stroke-linecap="round" stroke-linejoin="round"/>
<path d="M196.8 110.868C196.8 110.868 195.12 108.537 192.338 109.319C190.102 109.948 189.308 112.788 191.725 115.207C194.253 117.737 192.183 120.001 190.077 120.001" stroke="black" stroke-width="1.1097" stroke-linecap="round" stroke-linejoin="round"/>
<path d="M186.352 108.093C186.352 108.093 184.655 106.571 182.054 107.018C179.85 107.394 178.893 108.464 178.893 108.464" stroke="black" stroke-width="1.1097" stroke-linecap="round" stroke-linejoin="round"/>
<path d="M184.299 111.732C184.353 110.868 183.773 110.13 183.003 110.083C182.234 110.036 181.566 110.699 181.512 111.563C181.458 112.427 182.039 113.165 182.808 113.212C183.578 113.259 184.246 112.596 184.299 111.732Z" fill="black"/>
<path d="M195.243 113.862C195.297 112.998 194.716 112.26 193.947 112.213C193.177 112.166 192.509 112.829 192.455 113.693C192.401 114.557 192.982 115.295 193.751 115.342C194.521 115.389 195.189 114.726 195.243 113.862Z" fill="black"/>
<path d="M192.376 92.289C199.14 95.7359 202.319 100.783 199.649 104.412C198.084 106.539 193.328 105.969 190.08 104.767C186.832 103.565 180.652 99.0187 178.228 100.008C175.803 100.998 175.844 110.352 171.353 112.406C171.353 112.406 168.481 108.8 165.863 108.432C165.863 108.432 164.696 101.223 167.72 95.3756C170.554 89.8934 180.519 86.2448 192.379 92.289H192.376Z" fill="black"/>
<mask id="mask0_669_20469" style="mask-type:luminance" maskUnits="userSpaceOnUse" x="112" y="136" width="118" height="84">
<path d="M123.197 219.467C123.197 219.467 112.782 217.956 112.476 208.446C112.171 198.934 125.954 148.956 135.294 142.313C144.638 135.669 165.312 136.803 165.312 136.803C165.312 136.803 167.955 144.313 177.565 145.633C186.355 146.84 187.268 141.858 187.268 141.858C187.268 141.858 201.305 148.166 207.583 158.074C213.861 167.981 216.007 197.726 216.007 197.726L229.79 204.521L221.521 219.47H123.2L123.197 219.467Z" fill="white"/>
</mask>
<g mask="url(#mask0_669_20469)">
<path d="M123.199 219.467C123.199 219.467 112.784 217.956 112.478 208.446C112.173 198.934 125.956 148.956 135.296 142.313C144.639 135.669 165.314 136.803 165.314 136.803C165.314 136.803 167.957 144.313 177.567 145.633C186.357 146.84 187.27 141.858 187.27 141.858C187.27 141.858 201.307 148.166 207.585 158.074C213.863 167.981 216.009 197.726 216.009 197.726L229.792 204.521L221.523 219.47H123.201L123.199 219.467Z" fill="#A6E82F"/>
<path d="M124.043 132.27V222.978" stroke="white" stroke-width="1.1097" stroke-miterlimit="10"/>
<path d="M145.635 132.27V222.978" stroke="white" stroke-width="1.1097" stroke-miterlimit="10"/>
<path d="M167.23 132.27V222.978" stroke="white" stroke-width="1.1097" stroke-miterlimit="10"/>
<path d="M188.822 132.27V222.978" stroke="white" stroke-width="1.1097" stroke-miterlimit="10"/>
<path d="M210.413 132.27V222.978" stroke="white" stroke-width="1.1097" stroke-miterlimit="10"/>
<path d="M125.88 149.938H220.065" stroke="white" stroke-width="1.1097" stroke-miterlimit="10"/>
<path d="M117.15 169.866H223.283" stroke="white" stroke-width="1.1097" stroke-miterlimit="10"/>
<path d="M104.054 189.795H223.282" stroke="white" stroke-width="1.1097" stroke-miterlimit="10"/>
<path d="M104.054 209.726H240.28" stroke="white" stroke-width="1.1097" stroke-miterlimit="10"/>
</g>
<path d="M170.442 219.466C170.442 219.466 170.213 213.522 173.889 210.803C177.565 208.085 190.519 208.4 194.127 209.096C204.155 211.029 207.545 219.466 207.545 219.466H170.445H170.442Z" fill="white"/>
<path d="M316.609 168.508H244.874C243.003 168.508 241.283 169.519 240.394 171.143L216.329 215.051H178.94C176.466 215.051 174.459 217.028 174.459 219.469H292.932L318.837 172.202C319.751 170.535 318.526 168.51 316.604 168.51L316.609 168.508Z" fill="#C7C7C7"/>
<path d="M219.619 216.297L243.683 172.388C244.572 170.766 246.293 169.753 248.164 169.753H319.899C321.822 169.753 323.043 171.777 322.132 173.444L297.714 216.297" stroke="black" stroke-width="1.1097" stroke-linecap="round" stroke-linejoin="round"/>
<path d="M272.763 199.399C276.048 196.963 277.578 193.503 276.18 191.67C274.782 189.838 270.986 190.327 267.701 192.763C264.416 195.199 262.886 198.659 264.284 200.492C265.682 202.324 269.478 201.835 272.763 199.399Z" stroke="white" stroke-width="1.1097" stroke-miterlimit="10"/>
<path d="M145.773 189.458C145.773 189.458 142.732 208.368 134.949 207.123C130.7 206.442 132.691 198.93 150.761 203.915C168.834 208.897 172.355 210.408 172.355 210.408" stroke="black" stroke-width="1.1097" stroke-linecap="round" stroke-linejoin="round"/>
<path d="M200.882 172.358L195.482 208.142" stroke="black" stroke-width="1.1097" stroke-linecap="round" stroke-linejoin="round"/>
<path d="M170.038 218.165C172.354 205.765 190.312 207.827 196.284 209.201C202.922 210.728 204.976 215.052 204.976 215.052" stroke="black" stroke-width="1.1097" stroke-linecap="round" stroke-linejoin="round"/>
<path d="M184.145 212.823C184.145 212.823 189.735 213.199 191.803 214.484" stroke="black" stroke-width="1.1097" stroke-linecap="round" stroke-linejoin="round"/>
<path d="M189.354 210.785C189.354 210.785 198.16 211.992 200.879 214.484" stroke="black" stroke-width="1.1097" stroke-linecap="round" stroke-linejoin="round"/>
<path d="M0.676514 324.328H520.313" stroke="black" stroke-width="1.1097" stroke-linecap="round" stroke-linejoin="round"/>
<path d="M142.645 255.401L125.524 324.328" stroke="black" stroke-width="1.1097" stroke-linecap="round" stroke-linejoin="round"/>
<path d="M174.684 255.401L191.803 324.328" stroke="black" stroke-width="1.1097" stroke-linecap="round" stroke-linejoin="round"/>
<path d="M141.148 262.725L184.027 293.074" stroke="black" stroke-width="1.1097" stroke-linecap="round" stroke-linejoin="round"/>
<path d="M176.275 262.356L133.396 292.703" stroke="black" stroke-width="1.1097" stroke-linecap="round" stroke-linejoin="round"/>
<path d="M187.13 248.91H128.815C126.997 248.91 125.524 250.363 125.524 252.156V252.158C125.524 253.95 126.997 255.403 128.815 255.403H187.13C188.948 255.403 190.422 253.95 190.422 252.158V252.156C190.422 250.363 188.948 248.91 187.13 248.91Z" fill="white" stroke="black" stroke-width="1.1097" stroke-linecap="round" stroke-linejoin="round"/>
<path d="M210.899 166.107C210.899 166.107 215.928 193.497 216.004 197.723C216.081 201.95 206.656 202.926 206.127 200.818C205.505 198.35 211.197 196.559 223.171 201.256" stroke="black" stroke-width="1.1097" stroke-linecap="round" stroke-linejoin="round"/>
<path d="M85.9117 102.312C85.9117 102.312 90.7442 99.4274 87.5153 90.9392C85.1045 84.5966 76.7185 81.0879 65.6626 84.9381C57.1785 87.8929 51.8496 93.1789 52.6459 101.707C53.4423 110.236 65.1226 107.924 64.3072 103.401C63.4945 98.8789 52.6623 102.113 47.3907 110.758C39.2747 124.066 44.8981 134.751 51.9914 132.625C59.0847 130.498 57.0285 124.532 53.3768 125.44C49.7252 126.349 46.8671 136.814 49.2397 142.68C51.6096 148.544 54.5249 148.94 54.5249 148.94" stroke="black" stroke-width="1.1097" stroke-linecap="round" stroke-linejoin="round"/>
<path d="M88.2545 132.162C88.2545 132.162 76.855 124.096 79.6803 112.53C82.8575 99.5244 95.6532 95.849 105.179 99.9331C116.753 104.896 116.382 116.813 116.382 116.813C115.859 120.112 113.448 121.87 113.328 124.223C113.178 127.188 116.527 129.129 115.581 131.073C115.06 132.143 112.701 132.523 112.701 132.523C112.701 132.523 111.184 141.409 105.46 142.914C102.277 143.751 98.1949 141.21 95.1842 136.314" stroke="black" stroke-width="1.1097" stroke-linecap="round" stroke-linejoin="round"/>
<path d="M115.082 110.126C111.155 118.875 100.69 118.902 99.0542 115.226C97.4179 111.551 101.956 111.193 102.951 116.03C103.947 120.864 97.377 124.505 97.377 124.505C97.377 124.505 98.146 117.162 93.139 117.759C88.132 118.356 87.0247 126.433 93.2345 129.444" stroke="black" stroke-width="1.1097" stroke-linecap="round" stroke-linejoin="round"/>
<path d="M90.472 129.519C90.472 129.519 88.1839 134.448 84.2432 137.929C84.2432 137.929 88.2221 150.988 95.2254 149.636L99.8752 141.508" stroke="black" stroke-width="1.1097" stroke-linecap="round" stroke-linejoin="round"/>
<path d="M113.582 118.246C113.582 118.246 111.686 117.157 107.353 119.162" stroke="black" stroke-width="1.1097" stroke-linecap="round" stroke-linejoin="round"/>
<path d="M110.624 123.887C110.823 123.166 110.55 122.465 110.014 122.321C109.478 122.177 108.882 122.645 108.682 123.365C108.483 124.086 108.756 124.787 109.293 124.931C109.829 125.075 110.425 124.607 110.624 123.887Z" fill="black"/>
<path d="M106.651 132.106C106.651 132.106 107.343 135.028 109.539 135.69" stroke="black" stroke-width="1.1097" stroke-linecap="round" stroke-linejoin="round"/>
<path d="M83.369 139.852C82.9845 138.647 81.7518 137.908 80.4864 138.107C76.0903 138.793 66.3707 140.992 59.711 147.558C50.8669 156.277 33.4458 190.327 35.2839 202.103C37.122 213.879 61.2437 216.872 71.6559 217.316C82.0709 217.759 83.0663 208.897 86.5871 203.463C90.1105 198.027 95.0112 177.343 95.9303 172.361C96.6584 168.416 95.4885 157.409 94.9703 152.994C94.8476 151.959 94.1031 151.109 93.0858 150.816C90.5878 150.093 85.8807 147.708 83.3663 139.855L83.369 139.852Z" fill="black"/>
<path d="M163.889 42.8064H114.222C109.761 42.8064 105.637 45.1536 103.406 48.9635L91.2324 69.7524C89.1597 73.2934 91.7505 77.7189 95.8985 77.7189H128.131L127.683 83.8707C127.61 84.8977 128.782 85.5457 129.631 84.9434L139.822 77.7189H145.563C150.024 77.7189 154.148 75.3717 156.378 71.5619L168.552 50.773C170.625 47.232 168.034 42.8064 163.886 42.8064H163.889Z" fill="#A6E82F"/>
<path d="M454.684 47.665H406.247C401.894 47.665 397.875 49.953 395.698 53.6688L383.824 73.9442C381.804 77.3964 384.329 81.7145 388.373 81.7145H419.806L419.37 87.7129C419.296 88.7158 420.442 89.3449 421.271 88.7588L431.211 81.7118H436.81C441.163 81.7118 445.182 79.4237 447.359 75.7079L459.233 55.4326C461.254 51.9803 458.728 47.6623 454.684 47.6623V47.665Z" fill="#A6E82F"/>
<path d="M35.5923 208.612C35.5923 208.612 18.8231 232.601 34.2151 246.418C49.6071 260.232 101.066 254.118 101.066 254.118C101.066 254.118 120.611 307.862 127.484 308.793C135.18 309.833 144.943 304.171 144.943 304.171C144.943 304.171 134.375 247.249 125.318 234.765C117.939 224.594 76.2541 219.467 76.2541 219.467L71.6589 217.316L35.5923 208.612Z" fill="#A6E82F"/>
<path d="M89.8125 251.174C89.8125 251.174 66.4954 296.696 69.0234 304.171C70.3052 307.962 83.1528 310.965 83.1528 310.965L113.705 269.065L107.043 247.55L89.8125 251.174Z" fill="#A6E82F"/>
<path d="M236.458 12.8787H179.504C174.388 12.8787 169.659 15.57 167.101 19.9391L153.14 43.7797C150.762 47.8396 153.735 52.9158 158.491 52.9158H215.445C220.561 52.9158 225.29 50.2245 227.848 45.8554L241.808 22.0148C244.186 17.9549 241.214 12.8787 236.458 12.8787Z" fill="white" stroke="black" stroke-width="1.1097" stroke-linecap="round" stroke-linejoin="round"/>
<path d="M173.891 24.0988H231.657" stroke="black" stroke-width="1.1097" stroke-linecap="round" stroke-linejoin="round"/>
<path d="M203.443 33.5897H226.509" stroke="black" stroke-width="1.1097" stroke-linecap="round" stroke-linejoin="round"/>
<path d="M168.746 33.5897H189.05" stroke="black" stroke-width="1.1097" stroke-linecap="round" stroke-linejoin="round"/>
<path d="M120.668 63.639C123.8 61.3164 125.259 58.0175 123.926 56.2707C122.594 54.5239 118.974 54.9907 115.842 57.3132C112.71 59.6358 111.252 62.9347 112.584 64.6815C113.917 66.4283 117.537 65.9615 120.668 63.639Z" stroke="black" stroke-width="1.1097" stroke-linecap="round" stroke-linejoin="round"/>
<path d="M144.172 63.6377C147.304 61.3152 148.763 58.0163 147.43 56.2695C146.097 54.5227 142.478 54.9894 139.346 57.312C136.214 59.6346 134.755 62.9335 136.088 64.6803C137.421 66.4271 141.04 65.9603 144.172 63.6377Z" stroke="black" stroke-width="1.1097" stroke-linecap="round" stroke-linejoin="round"/>
<path d="M403.152 59.6161H444.61" stroke="black" stroke-width="1.1097" stroke-linecap="round" stroke-linejoin="round"/>
<path d="M397.947 68.325H439.408" stroke="black" stroke-width="1.1097" stroke-linecap="round" stroke-linejoin="round"/>
<path d="M129.898 309.833C129.898 309.833 129.784 320.59 133.114 323.422" stroke="black" stroke-width="1.1097" stroke-linecap="round" stroke-linejoin="round"/>
<path d="M153.102 310.965C153.102 310.965 160.261 314.92 165.085 317.071C169.91 319.222 170.101 323.422 170.101 323.422" stroke="black" stroke-width="1.1097" stroke-linecap="round" stroke-linejoin="round"/>
<path d="M206.354 320.932C205.13 318.138 187.976 311.898 187.976 311.898L166.063 309.185C166.063 309.185 165.242 311.664 164.386 314.608C165.845 315.213 169.557 316.856 171.245 318.612C172.595 320.015 172.971 322.97 173.067 324.938C186.023 325.097 206.354 324.33 206.354 324.33C206.354 324.33 207.579 323.725 206.354 320.932Z" fill="black"/>
<path d="M67.9824 306.513C67.9824 306.513 60.63 319.12 61.0146 321.384" stroke="black" stroke-width="1.1097" stroke-linecap="round" stroke-linejoin="round"/>
<path d="M82.9167 311.898C82.9167 311.898 83.2986 315.119 87.5884 316.63C91.8754 318.141 98.3851 320.254 96.6234 324.33" stroke="black" stroke-width="1.1097" stroke-linecap="round" stroke-linejoin="round"/>
<path d="M94.865 161.713L109.649 190.63L129.783 178.098L135.276 188.557C135.276 188.557 116.805 216.864 108.765 218.165C100.726 219.466 85.1045 196.932 85.1045 196.932L94.8677 161.713H94.865Z" fill="black"/>
<path d="M312.524 296.018C312.524 296.018 318.957 304.171 319.415 306.663C319.874 309.155 306.437 323.422 306.437 323.422H285.877C285.877 323.422 285.648 320.59 287.944 318.665C290.24 316.74 295.526 314.589 295.526 314.589L296.674 305.19L312.524 296.016V296.018Z" fill="#A6E82F"/>
<path d="M268.877 310.739C268.877 310.739 267.154 324.328 265.776 324.328C264.399 324.328 227.528 324.328 227.528 324.328C227.528 324.328 227.91 321.308 229.863 319.496C231.815 317.684 243.07 313.385 244.488 312.777C248.126 311.218 249.58 308.793 249.58 308.793L268.877 310.739Z" fill="#A6E82F"/>
<path d="M249.585 308.793L280.483 318.101L302.655 250.873C302.655 250.873 346.821 251.653 352.425 250.295C363.757 247.55 362.737 228.073 362.737 228.073H283.546C283.546 228.073 277.113 231.092 274.203 239.094C271.293 247.095 249.585 308.793 249.585 308.793Z" fill="black"/>
<path d="M266.529 228.073C266.529 228.073 258.563 230.219 257.622 238.83C256.283 251.099 285.873 314.135 285.873 314.135L312.528 296.016L285.873 245.509V228.07H266.529V228.073Z" fill="black"/>
<path d="M290.362 167.147C290.362 167.147 295.762 158.767 299.092 156.616C302.422 154.465 312.417 152.427 312.417 152.427" stroke="black" stroke-width="1.1097" stroke-linecap="round" stroke-linejoin="round"/>
<path d="M342.503 149.37C342.503 149.37 346.7 144.963 353.491 148.09C362.144 152.072 366.51 177.566 366.51 177.566" stroke="black" stroke-width="1.1097" stroke-linecap="round" stroke-linejoin="round"/>
<path d="M300.067 209.615L314.194 207.916" stroke="black" stroke-width="1.1097" stroke-linecap="round" stroke-linejoin="round"/>
<path d="M300.752 218.052L305.347 214.541" stroke="black" stroke-width="1.1097" stroke-linecap="round" stroke-linejoin="round"/>
<path d="M307.13 218.278L310.575 216.297" stroke="black" stroke-width="1.1097" stroke-linecap="round" stroke-linejoin="round"/>
<path d="M320.225 145.407C315.019 147.595 308.28 147.294 304.222 141.858C300.164 136.421 302.212 122.002 302.212 122.002C302.212 122.002 304.241 114.038 308.414 111.715" stroke="black" stroke-width="1.1097" stroke-linecap="round" stroke-linejoin="round"/>
<path d="M313.254 146.679L312.412 152.427C312.412 152.427 312.068 161.708 323.435 156.336" stroke="black" stroke-width="1.1097" stroke-linecap="round" stroke-linejoin="round"/>
<path d="M309.772 106.451C309.772 106.451 306.712 110.102 309.772 114.831C312.831 119.561 321.512 120.026 324.719 123.438C326.377 125.204 327.692 129.552 326.312 133.402C324.935 137.252 319.267 141.683 323.593 146.318C327.918 150.954 333.432 148.235 331.823 145.404C330.214 142.573 317.964 155.742 326.309 161.031C332.742 165.107 342.506 149.367 342.506 149.367" stroke="black" stroke-width="1.1097" stroke-linecap="round" stroke-linejoin="round"/>
<path d="M295.131 158.444C282.864 149.082 297.473 141.11 298.671 138.265C300.675 133.498 295.251 125.241 295.84 119.657C296.429 114.075 303.847 102.95 315.538 100.468C324.857 98.4917 336.18 102.213 339.248 111.4C342.316 120.587 341.607 124.542 347.269 127.798C352.93 131.054 368.974 139.545 359.772 149.313" stroke="black" stroke-width="1.1097" stroke-linecap="round" stroke-linejoin="round"/>
<path d="M303.511 121.76C303.511 121.76 305.692 119.531 308.793 120.945C311.894 122.359 311.493 126.153 310.19 128.307C309.284 129.802 306.868 131.762 310.956 134.079" stroke="black" stroke-width="1.1097" stroke-linecap="round" stroke-linejoin="round"/>
<path d="M314.596 120.571C314.596 120.571 315.275 119.27 319.3 120.429" stroke="black" stroke-width="1.1097" stroke-linecap="round" stroke-linejoin="round"/>
<path d="M309.512 137.679C309.512 137.679 311.167 138.913 313.595 138.077C316.245 137.166 316.608 135.666 316.608 135.666" stroke="black" stroke-width="1.1097" stroke-linecap="round" stroke-linejoin="round"/>
<path d="M317.925 127.358C318.592 127.358 319.133 126.729 319.133 125.954C319.133 125.179 318.592 124.551 317.925 124.551C317.258 124.551 316.717 125.179 316.717 125.954C316.717 126.729 317.258 127.358 317.925 127.358Z" fill="black"/>
<path d="M306.902 127.624C307.569 127.624 308.11 126.995 308.11 126.22C308.11 125.445 307.569 124.817 306.902 124.817C306.235 124.817 305.694 125.445 305.694 126.22C305.694 126.995 306.235 127.624 306.902 127.624Z" fill="black"/>
<path d="M344.65 168.508C344.65 168.508 343.426 196.096 347.713 201.893C352 207.69 356.137 203.614 350.317 199.688C344.498 195.763 315.094 206.633 315.094 206.633C315.094 206.633 321.68 210.145 320.223 218.052" stroke="black" stroke-width="1.1097" stroke-linecap="round" stroke-linejoin="round"/>
<path d="M366.511 218.862C366.511 218.862 369.92 218.106 371.144 207.916" stroke="black" stroke-width="1.1097" stroke-linecap="round" stroke-linejoin="round"/>
<path d="M496.573 226.866C496.573 226.866 501.935 240.153 495.04 243.928C488.149 247.703 440.672 239.701 436.385 247.552C432.501 254.661 448.177 306.892 448.177 306.892" stroke="#A6E82F" stroke-width="1.1097" stroke-linejoin="round"/>
<path d="M483.858 231.697C483.858 231.697 435.004 230.791 427.346 239.247C419.689 247.703 440.977 306.889 440.977 306.889" stroke="#A6E82F" stroke-width="1.1097" stroke-linejoin="round"/>
<path d="M441.135 229.28C441.135 229.28 418.775 229.28 414.027 239.094C409.279 248.908 434.396 306.889 434.396 306.889" stroke="#A6E82F" stroke-width="1.1097" stroke-linejoin="round"/>
<path d="M408.436 265.518L389.452 306.889" stroke="#A6E82F" stroke-width="1.1097" stroke-linejoin="round"/>
<path d="M403.629 250.268L379.265 306.889" stroke="#A6E82F" stroke-width="1.1097" stroke-linejoin="round"/>
<path d="M503.658 226.261C503.658 226.261 507.907 243.474 500.096 248.682C492.285 253.89 441.132 250.607 441.132 250.607L452.886 306.889" stroke="black" stroke-width="1.1097" stroke-linecap="round" stroke-linejoin="round"/>
<path d="M415.327 229.28C415.327 229.28 405.678 231.582 404.874 241.094C404.069 250.607 429.8 309.605 429.8 309.605" stroke="black" stroke-width="1.1097" stroke-linecap="round" stroke-linejoin="round"/>
<path d="M393.824 310.739L413.432 276.2" stroke="black" stroke-width="1.1097" stroke-linecap="round" stroke-linejoin="round"/>
<path d="M373.292 306.889C373.292 306.889 393.966 238.435 408.439 231.668" stroke="black" stroke-width="1.1097" stroke-linecap="round" stroke-linejoin="round"/>
<path d="M379.265 174.926L382.941 182.175C382.941 182.175 384.318 189.423 389.833 201.049C395.347 212.675 401.197 219.206 413.433 218.281C425.67 217.356 437.923 211.618 437.923 211.618C437.923 211.618 439.456 226.414 444.509 228.076C449.563 229.737 497.345 230.038 503.473 223.774C509.598 217.507 485.4 174.929 479.122 167.153C472.844 159.377 462.544 150.733 462.544 150.733C462.544 150.733 466.869 147.071 465.11 141.258C463.436 135.728 454.927 134.614 449.26 135.671C443.593 136.728 421.386 152.128 419.242 156.054C417.099 159.979 424.604 183.535 424.604 183.535L419.013 190.821L398.415 174.778L393.171 168.511L379.273 174.929L379.265 174.926Z" fill="#A6E82F"/>
<path d="M423.831 172.208L403.004 196.089L378.978 191.835L374.211 203.896L382.788 210.408C382.788 210.408 393.677 219.485 409.129 219.467C424.581 219.448 443.434 205.122 443.434 205.122L423.831 172.208Z" fill="#A6E82F"/>
<path d="M434.168 219.466H96.7763C94.3664 219.466 92.4128 221.392 92.4128 223.768V223.771C92.4128 226.147 94.3664 228.073 96.7763 228.073H434.168C436.578 228.073 438.532 226.147 438.532 223.771V223.768C438.532 221.392 436.578 219.466 434.168 219.466Z" fill="white" stroke="black" stroke-width="1.1097" stroke-linecap="round" stroke-linejoin="round"/>
<path d="M369.702 228.073L393.823 324.328H386.856L362.734 228.073H369.702Z" fill="#F3F3F3" stroke="black" stroke-width="1.1097" stroke-linecap="round" stroke-linejoin="round"/>
<path d="M434.853 314.194C434.853 314.194 429.396 309.043 424.571 311.874C419.747 314.705 429.51 320.311 431.52 318.555C433.53 316.799 425.087 313.339 419.229 314.958" stroke="black" stroke-width="1.1097" stroke-linecap="round" stroke-linejoin="round"/>
<path d="M373.764 312.1C373.764 312.1 368.307 306.948 363.483 309.779C358.659 312.611 368.422 318.217 370.432 316.461C372.442 314.705 363.999 311.245 358.141 312.863" stroke="black" stroke-width="1.1097" stroke-linecap="round" stroke-linejoin="round"/>
<path d="M94.9851 306.706C94.9851 306.706 87.4309 306.69 85.9201 312.022C84.4092 317.353 95.3997 314.767 95.626 312.129C95.8524 309.492 87.3191 312.732 84.2129 317.886" stroke="black" stroke-width="1.1097" stroke-linecap="round" stroke-linejoin="round"/>
<path d="M162.492 306.308C162.492 306.308 154.938 306.292 153.427 311.624C151.916 316.955 162.907 314.369 163.133 311.731C163.359 309.094 154.826 312.334 151.72 317.488" stroke="black" stroke-width="1.1097" stroke-linecap="round" stroke-linejoin="round"/>
<path d="M419.574 169.301C419.574 169.301 398.899 163.034 397.751 167.828C396.603 172.624 418.772 170.433 418.772 170.433C418.772 170.433 407.4 176.888 409.584 180.513C411.766 184.137 419.577 169.301 419.577 169.301H419.574Z" stroke="black" stroke-width="1.1097" stroke-linecap="round" stroke-linejoin="round"/>
<path d="M406.197 118.851C406.197 118.851 401.086 111.357 405.373 106.526C409.66 101.694 416.17 106.526 414.026 109.696C411.883 112.866 411.057 101.57 417.242 99.277C426.2 95.9565 428.191 108.714 425.666 109.166C423.138 109.618 423.58 101.13 430.948 99.9492C443.431 97.9542 442.282 112.863 438.145 112.788C434.011 112.712 439.763 105.48 445.691 108.37C452.657 111.769 446.875 123.583 442.741 123.128C438.606 122.677 446.826 114.861 450.475 121.733C456.957 133.942 438.759 142.229 434.625 141.89C430.49 141.551 429.225 138.362 429.225 138.362C429.225 138.362 435.887 139.172 436.921 132.829C437.954 126.487 432.786 124.048 429.11 125.949C425.434 127.847 425.32 133.171 425.32 133.171C425.32 133.171 418.695 131.057 420.61 124.865C422.524 118.676 424.439 121.771 421.987 125.317C419.535 128.866 411.648 121.918 414.943 117.541C418.234 113.161 417.547 120.034 412.186 120.711C406.824 121.391 406.48 116.068 406.48 116.068" stroke="black" stroke-width="1.1097" stroke-linecap="round" stroke-linejoin="round"/>
<path d="M406.256 119.738C406.256 119.738 405.708 120.706 405.719 123.362C405.73 126.261 406.218 127.551 405.345 129.893C405.086 130.589 400.551 131.442 400.551 133.025C400.551 134.609 402.465 137.443 402.465 137.443C402.465 137.443 401.833 147.275 405.795 150.956C409.758 154.637 417.683 151.408 417.683 151.408L419.75 154.295" stroke="black" stroke-width="1.1097" stroke-linecap="round" stroke-linejoin="round"/>
<path d="M404.603 142.043C404.603 142.043 408.009 143.226 410.191 139.828" stroke="black" stroke-width="1.1097" stroke-linecap="round" stroke-linejoin="round"/>
<path d="M407.403 122.701C407.403 122.701 410.79 120.889 413.604 125.193" stroke="black" stroke-width="1.1097" stroke-linecap="round" stroke-linejoin="round"/>
<path d="M409.671 130.554C410.37 130.554 410.937 129.845 410.937 128.971C410.937 128.096 410.37 127.387 409.671 127.387C408.973 127.387 408.406 128.096 408.406 128.971C408.406 129.845 408.973 130.554 409.671 130.554Z" fill="black"/>
<path d="M455.644 255.401L449.33 280.827" stroke="black" stroke-width="1.1097" stroke-linecap="round" stroke-linejoin="round"/>
<path d="M487.686 255.4L504.807 324.327" stroke="black" stroke-width="1.1097" stroke-linecap="round" stroke-linejoin="round"/>
<path d="M454.154 262.724L497.033 293.074" stroke="black" stroke-width="1.1097" stroke-linecap="round" stroke-linejoin="round"/>
<path d="M489.282 262.356L451.219 289.294" stroke="black" stroke-width="1.1097" stroke-linecap="round" stroke-linejoin="round"/>
<path d="M500.135 248.91H441.821C440.003 248.91 438.529 250.363 438.529 252.155V252.158C438.529 253.95 440.003 255.403 441.821 255.403H500.135C501.953 255.403 503.427 253.95 503.427 252.158V252.155C503.427 250.363 501.953 248.91 500.135 248.91Z" fill="white" stroke="black" stroke-width="1.1097" stroke-linecap="round" stroke-linejoin="round"/>
<path d="M43.55 255.401L26.4316 324.328" stroke="black" stroke-width="1.1097" stroke-linecap="round" stroke-linejoin="round"/>
<path d="M75.5867 255.401L92.7077 324.328" stroke="black" stroke-width="1.1097" stroke-linecap="round" stroke-linejoin="round"/>
<path d="M42.0486 262.724L84.9275 293.074" stroke="black" stroke-width="1.1097" stroke-linecap="round" stroke-linejoin="round"/>
<path d="M77.1825 262.356L34.3008 292.703" stroke="black" stroke-width="1.1097" stroke-linecap="round" stroke-linejoin="round"/>
<path d="M88.0367 248.91H29.7221C27.9041 248.91 26.4304 250.363 26.4304 252.155V252.158C26.4304 253.95 27.9041 255.403 29.7221 255.403H88.0367C89.8546 255.403 91.3284 253.95 91.3284 252.158V252.155C91.3284 250.363 89.8546 248.91 88.0367 248.91Z" fill="white" stroke="black" stroke-width="1.1097" stroke-linecap="round" stroke-linejoin="round"/>
<path d="M165.385 228.073L141.263 324.328H148.234L172.353 228.073H165.385Z" fill="#F3F3F3" stroke="black" stroke-width="1.1097" stroke-linecap="round" stroke-linejoin="round"/>
<path d="M191.809 255.401L205.273 285.301" stroke="black" stroke-width="1.1097" stroke-linecap="round" stroke-linejoin="round"/>
<path d="M212.649 229.966C212.649 229.966 219.188 232.969 222.325 237.204C225.461 241.436 226.59 246.34 226.59 246.34" stroke="black" stroke-width="1.1097" stroke-linecap="round" stroke-linejoin="round"/>
<path d="M131.403 229.966C131.403 229.966 130.009 235.252 133.838 238.572C137.667 241.893 156.812 242.347 156.812 242.347" stroke="white" stroke-width="1.1097" stroke-linecap="round" stroke-linejoin="round"/>
<path d="M172.353 243.022C172.353 243.022 187.407 246.42 197.473 244.154C207.539 241.89 201.697 232.117 198.177 239.059C191.801 251.628 224.27 307.343 224.27 307.343" stroke="white" stroke-width="1.1097" stroke-linecap="round" stroke-linejoin="round"/>
<path d="M193.527 268.954L184.029 284.807" stroke="white" stroke-width="1.1097" stroke-linecap="round" stroke-linejoin="round"/>
<path d="M179.86 293.074L173.197 305.87" stroke="white" stroke-width="1.1097" stroke-linecap="round" stroke-linejoin="round"/>
<path d="M265.816 262.725C265.816 262.725 274.813 234.338 280.69 229.966" stroke="white" stroke-width="1.1097" stroke-linecap="round" stroke-linejoin="round"/>
<path d="M296.222 270.353L284.174 306.889" stroke="white" stroke-width="1.1097" stroke-linecap="round" stroke-linejoin="round"/>
<path d="M94.0601 254.005C94.0601 254.005 104.819 252.155 105.198 248.91C105.765 244.06 100.548 248.004 101.066 254.118C101.584 260.232 108.648 273.256 108.648 273.256" stroke="black" stroke-width="1.1097" stroke-linecap="round" stroke-linejoin="round"/>
<path d="M66.1476 146.538C54.4154 148.375 30.1192 190.657 33.3154 204.041C36.5116 217.428 79.1561 216.294 99.8742 207.01C98.3088 204.065 99.8742 196.139 99.8742 196.139L66.453 189.458C66.453 189.458 95.0935 142.011 66.1476 146.538Z" fill="black"/>
<path d="M78.1063 162.907C78.1063 162.907 69.3276 191.956 62.5888 193.252C58.1654 194.101 60.6471 187.646 70.923 189.458C81.1962 191.27 98.2845 195.819 98.2845 195.819" stroke="white" stroke-width="1.1097" stroke-linecap="round" stroke-linejoin="round"/>
<path d="M96.1654 168.508C96.1654 168.508 95.8191 181.758 92.4128 190.703" stroke="white" stroke-width="1.1097" stroke-linecap="round" stroke-linejoin="round"/>
<path d="M387.228 195.158C387.228 195.158 394.52 214.522 403.662 218.278" stroke="black" stroke-width="1.1097" stroke-linecap="round" stroke-linejoin="round"/>
<path d="M412.799 186.777C412.799 186.777 424.976 199.61 419.576 200.291C416.159 200.721 416.764 192.91 424.591 183.532C429.568 177.569 442.991 157.562 454.772 156.957" stroke="black" stroke-width="1.1097" stroke-linecap="round" stroke-linejoin="round"/>
<path d="M435.148 212.796C435.148 212.796 457.061 199.102 464.872 193.279" stroke="black" stroke-width="1.1097" stroke-linecap="round" stroke-linejoin="round"/>
<path d="M452.496 205.273L463.802 211.766L469.622 226.261" stroke="black" stroke-width="1.1097" stroke-linecap="round" stroke-linejoin="round"/>
<path d="M46.0119 215.993C46.0119 215.993 38.0486 232.904 46.0119 238.338C53.9752 243.775 104.198 237.282 112.473 240.906C120.747 244.53 131.159 301.651 131.159 301.651" stroke="black" stroke-width="1.1097" stroke-linecap="round" stroke-linejoin="round"/>
<path d="M47.5374 232.49C47.5374 232.49 57.4151 229.32 58.2196 217.657" stroke="black" stroke-width="1.1097" stroke-linecap="round" stroke-linejoin="round"/>
<path d="M391.366 167.408C391.366 167.408 391.352 165.123 391.6 162.012C391.851 158.901 395.124 150.676 394.682 149.558C393.351 146.2 388.486 156.441 388.486 156.441C388.486 156.441 383.326 140.898 381.376 140.088C379.426 139.279 382.612 154.919 382.612 154.919C382.612 154.919 378.856 140.158 376.661 139.879C374.466 139.599 378.019 157.11 378.578 156.024C379.137 154.938 373.912 142.137 371.957 142.527C369.998 142.92 374.534 158.248 374.534 158.248C374.534 158.248 369.723 149.51 368.496 150.854C367.269 152.201 373.454 170.487 379.568 174.038" stroke="black" stroke-width="1.1097" stroke-linecap="round" stroke-linejoin="round"/>
<path d="M377.825 191.835C377.825 191.835 375.548 186.909 374.781 186.003C374.015 185.097 366.537 178.359 365.084 179.115C363.63 179.87 368.828 187.364 368.828 187.364C368.828 187.364 354.298 180.553 351.235 181.72C348.173 182.887 360.731 187.891 360.731 187.891C360.731 187.891 349.473 185.398 347.406 187.361" stroke="black" stroke-width="1.1097" stroke-linecap="round" stroke-linejoin="round"/>
<path d="M359.58 192.023C359.58 192.023 348.786 188.022 346.945 189.7C345.104 191.378 358.661 196.212 358.661 196.212C358.661 196.212 348.322 194.303 347.788 196.115C347.253 197.927 369.057 203.138 373.115 202.307" stroke="black" stroke-width="1.1097" stroke-linecap="round" stroke-linejoin="round"/>
<path d="M129.894 178.757C129.894 178.757 132.842 173.157 133.605 172.251C134.372 171.345 141.85 164.607 143.303 165.362C144.757 166.118 139.559 173.611 139.559 173.611C139.559 173.611 154.089 166.801 157.152 167.968C160.214 169.134 147.656 174.138 147.656 174.138C147.656 174.138 160.981 171.694 160.981 173.608C160.981 176.827 148.804 178.273 148.804 178.273C148.804 178.273 159.598 174.272 161.439 175.95C163.28 177.628 149.723 182.462 149.723 182.462C149.723 182.462 160.062 180.553 160.596 182.365C161.133 184.178 139.327 189.388 135.269 188.557" fill="white"/>
<path d="M368.829 187.364C368.829 187.364 368.41 192.706 372.083 195.158" stroke="black" stroke-width="1.1097" stroke-linecap="round" stroke-linejoin="round"/>
<path d="M130.566 178.082C130.566 178.082 132.843 173.157 133.609 172.251C134.376 171.345 141.853 164.607 143.307 165.362C144.76 166.118 139.563 173.611 139.563 173.611C139.563 173.611 154.093 166.801 157.155 167.968C160.218 169.134 147.659 174.138 147.659 174.138C147.659 174.138 158.917 171.646 160.984 173.608" stroke="black" stroke-width="1.1097" stroke-linecap="round" stroke-linejoin="round"/>
<path d="M148.808 178.271C148.808 178.271 159.602 174.27 161.442 175.948C163.283 177.625 149.727 182.459 149.727 182.459C149.727 182.459 160.065 180.551 160.6 182.363C161.137 184.175 139.331 189.386 135.273 188.555" stroke="black" stroke-width="1.1097" stroke-linecap="round" stroke-linejoin="round"/>
<path d="M139.562 173.608C139.562 173.608 139.982 178.951 136.309 181.403" stroke="black" stroke-width="1.1097" stroke-linecap="round" stroke-linejoin="round"/>
<path d="M280.885 166.128C280.885 166.128 280.942 160.649 279.104 156.231C277.266 151.814 267.451 142.86 266.851 144.498C265.957 146.95 271.062 153.935 271.062 153.935C271.062 153.935 252.855 146.678 250.693 147.746C247.317 149.41 261.299 155.145 261.299 155.145C261.299 155.145 247.946 149.426 244.557 152.596" stroke="black" stroke-width="1.1097" stroke-linecap="round" stroke-linejoin="round"/>
<path d="M259.69 158.073C259.69 158.073 245.547 151.23 244.996 155.218C244.873 156.11 250.099 158.073 250.099 158.073" stroke="black" stroke-width="1.1097" stroke-linecap="round" stroke-linejoin="round"/>
<path d="M258.256 160.807C258.256 160.807 247.459 156.675 246.369 159.165C245.649 160.807 259.693 164.827 259.693 164.827L264.346 167.658" stroke="black" stroke-width="1.1097" stroke-linecap="round" stroke-linejoin="round"/>
<path d="M264.342 161.184C264.342 161.184 270.679 161.184 274.429 162.316" stroke="black" stroke-width="1.1097" stroke-linecap="round" stroke-linejoin="round"/>
<path d="M101.012 196.309C101.012 196.309 108.994 194.951 111.465 193.932C113.936 192.913 129.732 192.3 129.325 194.384C128.75 197.328 117.495 196.309 117.495 196.309C117.495 196.309 128.521 197.686 129.543 199.046C130.634 200.495 128.867 201.122 128.867 201.122C128.867 201.122 129.862 202.555 128.867 203.386C127.872 204.216 116.846 204.593 116.846 204.593C116.846 204.593 125.652 206.582 125.423 208.153C125.194 209.723 99.8802 207.01 99.8802 207.01C99.8802 207.01 97.074 197.043 101.015 196.309H101.012Z" fill="white"/>
<path d="M129.544 199.046C130.635 200.495 128.868 201.122 128.868 201.122C128.868 201.122 129.863 202.555 128.868 203.385C127.873 204.216 116.847 204.593 116.847 204.593C116.847 204.593 126.034 206.405 125.424 208.152C125.268 208.599 123.997 208.964 120.828 208.86" stroke="black" stroke-width="1.1097" stroke-linecap="round" stroke-linejoin="round"/>
<path d="M116.459 200.065L128.442 200.971" stroke="black" stroke-width="1.1097" stroke-linecap="round" stroke-linejoin="round"/>
<path d="M425.316 161.714C425.316 161.714 450.381 157.637 461.05 151.182C471.719 144.726 463.554 133.808 453.226 135.311" stroke="black" stroke-width="1.1097" stroke-linecap="round" stroke-linejoin="round"/>
<path d="M188.579 134.803L187.791 140.253" stroke="black" stroke-width="1.1097" stroke-linecap="round" stroke-linejoin="round"/>
<path d="M183.882 124.37C183.882 124.37 185.049 126.064 187.618 126.04C190.427 126.016 191.256 124.709 191.256 124.709" stroke="black" stroke-width="1.1097" stroke-linecap="round" stroke-linejoin="round"/>
<path d="M184.557 123.819C184.557 123.819 185.476 125.653 188.023 125.981C190.808 126.339 191.814 125.158 191.814 125.158" stroke="black" stroke-width="1.1097" stroke-linecap="round" stroke-linejoin="round"/>
</g>
<defs>
<clipPath id="clip0_669_20469">
<rect width="521" height="325" fill="white"/>
</clipPath>
</defs>
</svg>
