<svg width="83" height="84" viewBox="0 0 83 84" fill="none" xmlns="http://www.w3.org/2000/svg">
<g clip-path="url(#clip0_669_20360)">
<path fill-rule="evenodd" clip-rule="evenodd" d="M26.0368 31.6229C26.5977 31.5201 27.1586 31.4169 27.7193 31.3142C27.7193 31.097 27.7193 30.8797 27.7193 30.6625C27.6598 29.8112 27.1025 29.5182 26.3492 29.4448C24.216 29.4448 22.0825 29.4448 19.949 29.4448C18.9279 29.3917 18.3338 29.801 18.2839 30.7996C18.2839 31.4629 18.2839 32.1259 18.2839 32.7892C18.3036 33.8859 18.9866 34.1966 19.9316 34.1956C21.9783 34.1956 24.0248 34.1956 26.0716 34.1956C26.0716 34.9103 26.0716 35.6249 26.0716 36.3395C23.9843 36.3395 21.7737 36.3395 19.6867 36.3395L19.6888 35.2934C19.0933 35.3907 18.4976 35.4878 17.9022 35.5851C17.804 37.0277 18.2001 37.7187 19.4979 37.7118C21.6374 37.7118 23.7761 37.7118 25.9155 37.7118C27.0926 37.748 27.6284 37.4352 27.726 36.6184C27.726 35.7667 27.726 34.9146 27.726 34.0629C27.6902 33.3087 27.5484 32.5966 25.7943 32.6693C23.8688 32.6693 21.9438 32.6693 20.0183 32.6693C20.0183 32.0407 20.0183 31.4115 20.0183 30.7824C22.0129 30.7824 24.0077 30.7824 26.0023 30.7824C26.0137 31.0623 26.0254 31.3427 26.0368 31.6229Z" fill="#323942"/>
<path fill-rule="evenodd" clip-rule="evenodd" d="M30.1089 29.423H40.412V30.898H36.0932V37.7593H34.2546V30.898H30.1089V29.423Z" fill="#323942"/>
<path fill-rule="evenodd" clip-rule="evenodd" d="M45.5983 29.3714H47.576L52.46 37.7375H50.4999L49.4427 35.8897H43.6622L42.6048 37.7375H40.6201L45.5983 29.3714ZM48.6186 34.4483L46.5873 30.8977H46.5179L44.4867 34.4483H48.6186Z" fill="#323942"/>
<path fill-rule="evenodd" clip-rule="evenodd" d="M54.8091 29.4402H56.1794H56.5786H61.5393C63.0248 29.4065 63.8913 29.4615 63.8292 31.1213V32.8477C63.8335 32.9597 63.8335 33.0639 63.8292 33.1618V33.1964H63.8275C63.7568 34.5148 62.9126 34.5595 61.5393 34.5284V34.5274V34.5343H60.8128L64.5356 37.703L62.0207 37.7287L58.6556 34.5343H56.5786V37.7246H54.8095L54.8091 29.4402ZM62.1981 32.848V31.1211C62.139 30.9 61.9552 30.749 61.4095 30.7436H61.3482H56.5782V33.2309H61.3495L61.3482 33.2249C61.9415 33.2306 62.1364 33.0768 62.1981 32.848Z" fill="#323942"/>
<path fill-rule="evenodd" clip-rule="evenodd" d="M17.7678 41.6268H28.071V43.1021H23.7518V49.9627H21.9135V43.1021H17.7678V41.6268Z" fill="#323942"/>
<path fill-rule="evenodd" clip-rule="evenodd" d="M45.1131 41.524H47.0903L51.9748 49.8903H50.0142L48.957 48.0418H43.1768L42.1195 49.8903H40.1348L45.1131 41.524ZM48.1329 46.6008L46.1017 43.0504H46.0327L44.0015 46.6008H48.1329Z" fill="#323942"/>
<path fill-rule="evenodd" clip-rule="evenodd" d="M31.8003 48.5047H38.9902V49.9758H29.9358V49.294V48.5047V46.3907V44.92V43.0631V42.6559V41.5923H38.9902V43.0631H31.8003V44.92H35.946V46.3907H31.8003V48.5047Z" fill="#323942"/>
<path fill-rule="evenodd" clip-rule="evenodd" d="M63.0309 41.6098H64.8347V49.8856H63.0309V44.2577L58.9025 49.0624L54.9476 44.4851V49.8856H53.1438V41.6098H54.9476L58.9115 46.5644L63.0309 41.6098Z" fill="#323942"/>
<path fill-rule="evenodd" clip-rule="evenodd" d="M25.9008 12.8944C25.9634 12.8677 26.1828 12.6715 26.4664 12.6371C26.8242 12.5937 27.1192 12.926 27.1192 13.2824C27.1192 13.5718 26.9374 13.7292 26.6617 13.8987C23.2241 15.9443 20.0467 18.9929 17.5343 22.365C17.3959 22.5655 17.2038 22.7532 16.9358 22.7532C16.5753 22.7532 16.283 22.4643 16.283 22.1077C16.283 21.9066 16.3889 21.7554 16.5218 21.6085C19.3978 17.7397 22.47 14.979 25.9008 12.8944Z" fill="#323942"/>
<path fill-rule="evenodd" clip-rule="evenodd" d="M30.5417 10.582C30.5682 10.5671 30.596 10.5543 30.6248 10.543L30.6256 10.5427C30.6988 10.5147 30.7783 10.4991 30.8617 10.4991C31.2223 10.4991 31.5145 10.788 31.5145 11.1444C31.5145 11.4186 31.3415 11.6531 31.0977 11.7466L30.2291 12.1543C30.1345 12.207 30.0257 12.237 29.9094 12.237C29.549 12.237 29.2566 11.9481 29.2566 11.5915C29.2566 11.3208 29.4254 11.0889 29.6645 10.9929L30.5417 10.582Z" fill="#323942"/>
<path fill-rule="evenodd" clip-rule="evenodd" d="M35.8914 2.54063H35.9007H36.8877H36.8973C37.2578 2.54063 37.5499 2.82952 37.5499 3.1862C37.5499 3.54262 37.2578 3.83176 36.8973 3.83176H35.8914C35.5309 3.83176 35.2385 3.54287 35.2385 3.1862C35.2385 2.82977 35.5307 2.54063 35.8914 2.54063Z" fill="#323942"/>
<path fill-rule="evenodd" clip-rule="evenodd" d="M41.789 2.1976L41.8059 2.19811H41.8077C47.326 2.24639 52.3603 3.39372 56.9552 5.54148C57.2345 5.68016 57.4632 5.86374 57.4632 6.17088C57.4632 6.52727 57.1711 6.81641 56.8104 6.81641C56.6751 6.81641 56.577 6.77381 56.445 6.70576C51.8951 4.77138 47.0193 3.67464 41.7893 3.48898C41.4289 3.48898 41.1365 3.2001 41.1365 2.84342C41.1365 2.487 41.4284 2.1976 41.789 2.1976Z" fill="#323942"/>
<path fill-rule="evenodd" clip-rule="evenodd" d="M55.7002 11.1855C55.8171 11.1855 55.8989 11.2291 56.0527 11.2874C62.0847 14.0153 66.5768 18.2168 69.8742 23.5621C69.9967 23.7398 70.0558 23.842 70.0558 24.0089C70.0558 24.3653 69.7636 24.6545 69.403 24.6545C69.1147 24.6545 68.9442 24.4891 68.784 24.2135C65.3375 18.9466 60.8952 15.0876 55.5772 12.465C55.5284 12.4558 55.3292 12.351 55.2662 12.3133C55.1317 12.1951 55.0474 12.0228 55.0474 11.831C55.0474 11.4746 55.3395 11.1855 55.7002 11.1855Z" fill="#323942"/>
<path fill-rule="evenodd" clip-rule="evenodd" d="M70.9637 16.468C71.1646 16.468 71.3437 16.5576 71.4636 16.6979L71.464 16.6984C71.4863 16.7245 71.5064 16.7528 71.5248 16.7826L71.9716 17.4027C72.095 17.5201 72.1721 17.6852 72.1721 17.868C72.1721 18.2245 71.8799 18.5136 71.5193 18.5136C71.2987 18.5136 71.1042 18.4055 70.986 18.2401L70.4921 17.5586C70.4501 17.5152 70.4146 17.4662 70.3859 17.4125C70.3388 17.3231 70.3118 17.2214 70.3118 17.1133C70.3118 16.7569 70.6039 16.4678 70.9646 16.4678L70.9637 16.468Z" fill="#323942"/>
<path fill-rule="evenodd" clip-rule="evenodd" d="M74.1902 21.3331C74.5055 21.3331 74.6704 21.5414 74.8293 21.8467C78.3773 28.4063 79.975 35.4274 79.2678 42.9937C79.2678 43.3502 78.9757 43.639 78.615 43.639C78.2548 43.639 77.9622 43.3502 77.9622 42.9937C77.9622 42.9611 77.9648 42.9297 77.9695 42.8986C78.5067 35.7484 77.1839 28.8845 73.6629 22.359C73.5918 22.2362 73.5378 22.1209 73.5378 21.9789C73.5378 21.6223 73.83 21.3334 74.1906 21.3334L74.1902 21.3331Z" fill="#323942"/>
<path fill-rule="evenodd" clip-rule="evenodd" d="M70.5127 25.5247C70.7812 25.5247 71.0121 25.6852 71.1124 25.9142L71.9922 27.9272C72.0402 28.0171 72.0671 28.1195 72.0671 28.2282C72.0671 28.5848 71.775 28.8737 71.4148 28.8737C71.1783 28.8737 70.971 28.7492 70.8562 28.5627C70.8262 28.5137 70.8027 28.46 70.7864 28.4038L69.9443 26.4879C69.8907 26.3942 69.8599 26.2858 69.8599 26.1703C69.8599 25.8138 70.152 25.5247 70.5127 25.5247Z" fill="#323942"/>
<path fill-rule="evenodd" clip-rule="evenodd" d="M10.446 18.3657C10.8065 18.3657 11.0986 18.6546 11.0986 19.0113C11.0986 19.1345 11.0635 19.2496 11.0031 19.3477L11.0025 19.3484C10.9841 19.378 10.9638 19.406 10.9407 19.4322C6.69034 25.1734 4.65448 32.034 4.52439 39.858C4.52439 40.2144 4.23225 40.5036 3.87156 40.5036C3.51113 40.5036 3.21899 40.2147 3.21899 39.858C3.21899 39.847 3.21926 39.8362 3.21977 39.8251C3.37766 31.5235 5.62851 24.5099 9.86435 18.717C9.89502 18.6582 9.93421 18.6045 9.98094 18.5581C10.0994 18.4394 10.2637 18.3657 10.4455 18.3657H10.446Z" fill="#323942"/>
<path fill-rule="evenodd" clip-rule="evenodd" d="M11.6082 35.0959C11.9687 35.0959 12.2611 35.3848 12.2611 35.7415C12.2611 35.7674 12.2595 35.7928 12.2564 35.8177L12.2052 36.6802V36.6818L12.2044 36.6923C12.1819 37.0285 11.8988 37.294 11.5534 37.294C11.1928 37.294 10.9006 37.0051 10.9006 36.6487C10.9006 36.6343 10.9011 36.6202 10.9019 36.6061V36.6042L10.9027 36.5953L10.9567 35.7743C10.9562 35.7633 10.9557 35.7522 10.9557 35.7409C10.9557 35.7009 10.9596 35.6618 10.9663 35.6236V35.6231C11.0222 35.3229 11.2883 35.0954 11.608 35.0954L11.6082 35.0959Z" fill="#323942"/>
<path fill-rule="evenodd" clip-rule="evenodd" d="M11.2698 39.9138C11.6302 39.9138 11.9226 40.2027 11.9226 40.5591C12.1633 46.6181 14.0441 52.1042 17.4303 57.066C17.5978 57.1829 17.7074 57.3755 17.7074 57.5936C17.7074 57.9502 17.4153 58.239 17.0546 58.239C16.9146 58.239 16.7845 58.1954 16.6783 58.1208C16.5625 58.04 16.4747 57.9227 16.4316 57.7859C12.988 53.0557 10.8924 47.4363 10.6198 40.6153C10.618 40.5966 10.6172 40.5781 10.6172 40.5591C10.6172 40.2024 10.9091 39.9138 11.2698 39.9138Z" fill="#323942"/>
<path fill-rule="evenodd" clip-rule="evenodd" d="M3.94995 42.7435C4.27402 42.7435 4.54279 42.9767 4.59368 43.2829L4.59498 43.2901L4.93959 45.3587C4.95723 45.4172 4.96657 45.479 4.96657 45.5434C4.96657 45.8999 4.67444 46.1887 4.31401 46.1887C3.95332 46.1887 3.66118 45.8999 3.66118 45.5434L3.33295 43.6001C3.30985 43.534 3.29712 43.4629 3.29712 43.3888C3.29712 43.0322 3.58926 42.7435 3.94995 42.7435Z" fill="#323942"/>
<path fill-rule="evenodd" clip-rule="evenodd" d="M13.0302 63.5349C13.1767 63.5349 13.3117 63.5823 13.4205 63.6628L13.4208 63.6632C13.487 63.7119 13.5436 63.7733 13.587 63.8432C17.1762 67.7166 21.2973 71.0629 26.51 73.331C26.8097 73.4894 27.0044 73.6279 27.0044 73.9573C27.0044 74.5273 26.3454 74.6654 25.8759 74.399C20.6779 72.1377 16.1772 68.957 12.5535 64.6207C12.4447 64.5055 12.3779 64.3501 12.3779 64.1802C12.3779 63.8237 12.6701 63.5349 13.0307 63.5349H13.0302Z" fill="#323942"/>
<path fill-rule="evenodd" clip-rule="evenodd" d="M30.7922 67.7886C30.882 67.7886 30.9672 67.8064 31.0454 67.8386L31.0464 67.8394L32.6258 68.4501C32.8685 68.5441 33.0405 68.7779 33.0405 69.0514C33.0405 69.4075 32.7483 69.6968 32.3879 69.6968C32.304 69.6968 32.2241 69.6811 32.1506 69.6527L32.1488 69.6519L30.5546 69.0353C30.3115 68.9413 30.1399 68.7071 30.1399 68.4336C30.1399 68.077 30.432 67.7882 30.7924 67.7882L30.7922 67.7886Z" fill="#323942"/>
<path d="M30.4799 76.0772C30.8403 76.0772 31.1325 75.7884 31.1325 75.4318C31.1325 75.0757 30.8403 74.7865 30.4799 74.7865C30.1196 74.7865 29.8274 75.0757 29.8274 75.4318C29.8274 75.7884 30.1196 76.0772 30.4799 76.0772Z" fill="#323942"/>
<path fill-rule="evenodd" clip-rule="evenodd" d="M37.009 69.6214C42.3271 70.642 47.7752 70.1601 53.3626 68.0757C53.7862 67.8958 54.3551 67.8767 54.433 68.5712C54.433 68.8456 54.26 69.0802 54.0154 69.1738C48.3591 71.4372 42.6006 71.8929 36.7589 70.8634C36.7091 70.852 36.6592 70.8402 36.6093 70.8291C36.285 70.7546 36.0866 70.5137 36.1063 70.2181C36.1362 69.7671 36.4891 69.5075 37.0092 69.6218L37.009 69.6214Z" fill="#323942"/>
<path fill-rule="evenodd" clip-rule="evenodd" d="M47.4266 75.9243C53.6745 74.9423 59.7733 72.2981 65.6635 67.3427C65.783 67.2157 65.953 67.1365 66.1419 67.1365C66.5026 67.1365 66.7948 67.4253 66.7948 67.7818C66.7948 67.9758 66.7087 68.1494 66.572 68.2676L66.5716 68.268C66.5626 68.2752 66.554 68.2828 66.5446 68.29C60.7692 73.0434 54.5012 76.1331 47.6189 77.1473C47.1996 77.1905 46.7121 77.0952 46.6873 76.5637C46.6684 76.1585 47.0025 75.9658 47.427 75.9239L47.4266 75.9243Z" fill="#323942"/>
<path d="M65.6216 61.2575C65.9818 61.2575 66.2739 60.9687 66.2739 60.6121C66.2739 60.256 65.9818 59.9672 65.6216 59.9672C65.2613 59.9672 64.9688 60.256 64.9688 60.6121C64.9688 60.9687 65.2613 61.2575 65.6216 61.2575Z" fill="#323942"/>
<path fill-rule="evenodd" clip-rule="evenodd" d="M70.2901 64.4509C70.1706 64.5957 69.9882 64.688 69.7847 64.688C69.4245 64.688 69.1323 64.3992 69.1323 64.0426C69.1323 63.8877 69.1872 63.7458 69.2788 63.6344L69.281 63.6319L70.5994 62.054V62.0536C70.7189 61.91 70.9005 61.819 71.1027 61.819C71.4634 61.819 71.7491 62.1078 71.7555 62.4644C71.7589 62.6498 71.6878 62.754 71.5294 62.953L70.2897 64.4509H70.2901Z" fill="#323942"/>
<path fill-rule="evenodd" clip-rule="evenodd" d="M68.3689 58.1962C68.3491 58.2292 68.326 58.261 68.3003 58.2902C68.1808 58.4266 68.0039 58.513 67.8069 58.513C67.4466 58.513 67.1541 58.2242 67.1541 57.8676C67.1541 57.7063 67.2145 57.5585 67.3134 57.445C69.6329 54.2652 71.441 50.285 72.5508 45.2118L72.5722 45.0953C72.6373 44.7451 72.8429 44.566 73.2032 44.566C73.5634 44.566 73.853 44.7921 73.853 45.1487C73.853 45.2592 73.8418 45.3371 73.8063 45.4587C72.8652 50.0736 71.1578 54.3638 68.3684 58.1958L68.3689 58.1962Z" fill="#323942"/>
<path fill-rule="evenodd" clip-rule="evenodd" d="M16.4802 3.32059L18.5953 7.18933L22.9693 7.98282L19.902 11.1672L20.4909 15.5262L16.4802 13.6257L12.4696 15.5262L13.0583 11.167L9.99121 7.98282L14.3654 7.18933L16.4802 3.32059Z" fill="#323942"/>
<path fill-rule="evenodd" clip-rule="evenodd" d="M29.1435 0.597595L30.3019 2.63109L32.6332 2.99213L31.0355 4.70952L31.4088 7.01392L29.2631 6.04197L27.1624 7.10535L27.4343 4.78681L25.7622 3.13978L28.0757 2.67911L29.1435 0.597595Z" fill="#323942"/>
<path fill-rule="evenodd" clip-rule="evenodd" d="M40.3084 5.97345L44.1584 8.1749L48.3052 6.58617L47.3778 10.8876L50.1869 14.2967L45.7638 14.7535L43.3527 18.4492L41.5465 14.4305L37.2473 13.305L40.5543 10.3643L40.3084 5.97345Z" fill="#323942"/>
<path fill-rule="evenodd" clip-rule="evenodd" d="M65.517 5.79314L66.6761 8.1746L69.2852 8.75056L67.3529 10.5766L67.6048 13.2079L65.2514 11.955L62.7987 13.0053L63.2768 10.4048L61.5085 8.42267L64.157 8.06827L65.517 5.79314Z" fill="#323942"/>
<path fill-rule="evenodd" clip-rule="evenodd" d="M74.7179 30.4649L74.5594 32.3877L75.9875 33.7017L74.0899 34.1467L73.2675 35.8957L72.2523 34.2484L70.3162 34.0155L71.5871 32.5523L71.2127 30.6591L73.013 31.4022L74.7179 30.4649Z" fill="#323942"/>
<path fill-rule="evenodd" clip-rule="evenodd" d="M5.55783 50.1422L7.01982 53.1709L10.3299 53.9128L7.86846 56.2237L8.17799 59.5657L5.19481 57.9654L2.07611 59.2888L2.69362 55.9891L0.457031 53.4648L3.82166 53.0261L5.55783 50.1422Z" fill="#323942"/>
<path fill-rule="evenodd" clip-rule="evenodd" d="M25.1719 59.4688L24.9953 62.2111L27.0626 64.0469L24.3708 64.7282L23.2441 67.2398L21.7569 64.9188L18.9932 64.6351L20.7657 62.5194L20.1848 59.8325L22.7676 60.8459L25.1719 59.4688Z" fill="#323942"/>
<path fill-rule="evenodd" clip-rule="evenodd" d="M39.594 72.0017L41.1811 75.724L45.1198 76.7988L42.03 79.4417L42.2136 83.4778L38.7168 81.3888L34.8921 82.8083L35.8206 78.8746L33.2729 75.7164L37.3437 75.3734L39.594 72.0017Z" fill="#323942"/>
<path fill-rule="evenodd" clip-rule="evenodd" d="M59.69 60.0392L60.7999 62.3322L63.3074 62.8916L61.445 64.6435L61.6818 67.175L59.421 65.9652L57.06 66.9697L57.5252 64.4699L55.8293 62.5596L58.3772 62.2247L59.69 60.0392Z" fill="#323942"/>
<path fill-rule="evenodd" clip-rule="evenodd" d="M79.6109 49.9318L79.5458 53.0147L81.9527 54.9753L78.9675 55.8667L77.8256 58.7357L76.0458 56.2042L72.9338 56.0166L74.819 53.5605L74.0373 50.5759L76.9817 51.5897L79.6109 49.9318Z" fill="#323942"/>
</g>
<defs>
<clipPath id="clip0_669_20360">
<rect width="81.8143" height="83" fill="white" transform="translate(0.457031 0.597595)"/>
</clipPath>
</defs>
</svg>
