<svg width="143" height="25" viewBox="0 0 143 25" fill="none" xmlns="http://www.w3.org/2000/svg">
<g clip-path="url(#clip0_669_20671)">
<path d="M17.6584 24.0977L15.8413 17.5028H6.91023L5.09312 24.0977H0.706299L7.00466 1.3595H11.3915L8.10208 13.2812H14.6823L11.3915 1.3595H16.0916L22.3585 24.0992H17.6584V24.0977Z" fill="#323942"/>
<path d="M25.2946 1.3595L32.3756 12.5024H27.0488L19.9363 1.3595H25.2946ZM26.6109 24.0992L37.9214 1.3595H42.5271L31.4971 24.0992H26.6095H26.6109Z" fill="#323942"/>
<path d="M57.0109 24.0977L55.1938 17.5028H46.2642L44.4471 24.0977H40.0603L46.3572 1.3595H50.7441L47.4547 13.2812H54.0349L50.7441 1.3595H55.4442L61.7111 24.0992H57.0109V24.0977Z" fill="#323942"/>
<path d="M68.8007 5.25625V24.0977H64.1006V1.3595H71.9657C76.8533 1.3595 81.2086 3.27598 81.2086 8.83112C81.2086 12.8273 79.0781 14.7764 76.1951 15.5551L81.5849 24.0992H76.258L68.8007 12.3392H72.1531C75.0977 12.3392 76.6343 11.0398 76.6343 8.83112C76.6343 6.45925 75.0362 5.25774 71.9971 5.25774H68.8007V5.25625Z" fill="#323942"/>
<path d="M84.9158 1.35948H89.6159V7.10894L100.74 0.87146V5.80953L89.6174 12.047L100.74 18.8363V24.5857L89.6174 17.7965V24.0977H84.9172V1.35948H84.9158Z" fill="#323942"/>
<path d="M109.309 1.3595V15.0019C109.309 16.724 109.686 19.7115 113.226 19.7115C116.765 19.7115 117.143 16.7225 117.143 15.0019V1.3595H122.157V14.677C122.157 19.9073 119.524 24.5843 113.227 24.5843C106.93 24.5843 104.297 19.9058 104.297 14.677V1.3595H109.311H109.309Z" fill="#323942"/>
<path d="M124.523 1.3595H142.697V5.58111H135.961V24.0977H131.261V5.58111H124.524V1.3595H124.523Z" fill="#323942"/>
</g>
<defs>
<clipPath id="clip0_669_20671">
<rect width="141.989" height="23.7143" fill="white" transform="translate(0.706299 0.87146)"/>
</clipPath>
</defs>
</svg>
