<svg width="109" height="46" viewBox="0 0 109 46" fill="none" xmlns="http://www.w3.org/2000/svg">
<g clip-path="url(#clip0_669_20332)">
<mask id="mask0_669_20332" style="mask-type:luminance" maskUnits="userSpaceOnUse" x="0" y="1" width="109" height="43">
<path d="M108.633 1.15198H0.828613V43.5967H108.633V1.15198Z" fill="white"/>
</mask>
<g mask="url(#mask0_669_20332)">
<path d="M13.9114 26.2813C13.9114 24.658 12.6805 23.89 10.3863 23.89H5.22582V28.6494H10.3863C12.6805 28.6494 13.9114 27.9338 13.9114 26.2872M5.22582 16.1051V20.6434H9.62352C11.779 20.6434 12.9579 19.8753 12.9579 18.3626C12.9579 16.8498 11.7848 16.1051 9.62352 16.1051H5.22582ZM18.3611 26.7468C18.3611 30.0749 15.7375 32.0008 10.7157 32.0008H0.828125V12.7479H10.1667C14.9458 12.7479 17.4076 14.7552 17.4076 17.7516C17.4076 19.6775 16.4252 21.1612 14.8649 21.9874C16.9973 22.674 18.3611 24.3264 18.3611 26.7468Z" fill="#323942"/>
<path d="M24.5623 23.3082H31.8032C31.5027 21.4406 30.11 20.2304 28.1972 20.2304C26.2844 20.2304 24.8628 21.4115 24.5623 23.3082ZM35.7328 25.8101H24.6143C25.0246 27.6545 26.5791 28.7775 28.8213 28.7775C30.3758 28.7775 31.4969 28.312 32.5082 27.3462L34.7735 29.819C33.4097 31.3841 31.3582 32.2103 28.7115 32.2103C23.6319 32.2103 20.3264 28.9928 20.3264 24.5941C20.3264 20.1954 23.6839 16.9779 28.1683 16.9779C32.6527 16.9779 35.8137 19.8929 35.8137 24.6523C35.8137 24.9839 35.7617 25.4494 35.7328 25.8101Z" fill="#323942"/>
<path d="M49.6136 24.1344C49.6136 21.9642 48.0011 20.5038 45.7647 20.5038C43.5283 20.5038 41.8871 21.9642 41.8871 24.1344C41.8871 26.3047 43.5283 27.7651 45.7647 27.7651C48.0011 27.7651 49.6136 26.3047 49.6136 24.1344ZM53.8203 17.2048V29.5222C53.8203 35.0205 50.8734 37.5515 45.574 37.5515C42.7886 37.5515 40.0841 36.865 38.362 35.5151L40.0552 32.4372C41.3092 33.4554 43.3607 34.1129 45.2446 34.1129C48.2497 34.1129 49.5615 32.7398 49.5615 30.0692V29.435C48.4404 30.6743 46.828 31.2794 44.9152 31.2794C40.8469 31.2794 37.5703 28.4458 37.5703 24.1286C37.5703 19.8114 40.8469 16.9779 44.9152 16.9779C46.9667 16.9779 48.66 17.6645 49.775 19.0958V17.199H53.8203V17.2048Z" fill="#323942"/>
<path d="M57.7786 17.2049H62.0373V32.0009H57.7786V17.2049Z" fill="#323942"/>
<path d="M81.0206 23.5293V32.0008H76.7619V24.1926C76.7619 21.8013 75.6696 20.7016 73.7857 20.7016C71.7341 20.7016 70.2605 21.9642 70.2605 24.6872V32.0008H66.0017V17.2048H70.0697V18.9386C71.2197 17.6761 72.9362 16.9837 74.93 16.9837C78.3974 16.9837 81.0206 19.0201 81.0206 23.5293Z" fill="#323942"/>
<path d="M89.5967 12.7479H85.1704V32.0008H89.5967V12.7479Z" fill="#323942"/>
<path d="M98.0915 16.3785H91.9719V12.7479H108.632V16.3785H102.518V32.0008H98.0915V16.3785Z" fill="#323942"/>
<path fill-rule="evenodd" clip-rule="evenodd" d="M59.9804 10.7289C61.4248 10.7289 62.5402 11.7763 62.5402 13.3297C62.5402 14.8832 61.4825 15.9305 60.067 15.9305C58.5356 15.9305 57.4202 14.8832 57.4202 13.3297C57.4202 11.7763 58.5413 10.7289 59.9804 10.7289Z" fill="#323942"/>
</g>
<path d="M68.5496 38.0967L67.0172 41.5985L65.3854 38.0967H63.7163L66.2326 43.3463L66.2136 43.3963C65.8402 44.2452 65.4413 44.4512 64.7002 44.4512H64.1711L64.8 45.8307C66.0707 45.8307 66.8804 45.2377 67.5841 43.7146L70.169 38.1029H68.5434L68.5496 38.0967Z" fill="#323942"/>
<path fill-rule="evenodd" clip-rule="evenodd" d="M105.744 37.9157C107.687 37.9157 108.989 39.4388 108.615 41.3177H104.224C104.318 42.1104 104.978 42.5911 105.713 42.5911C106.386 42.5911 106.94 42.2852 107.239 41.6672L108.484 42.3039C107.987 43.2839 106.934 43.9269 105.738 43.9269C103.944 43.9206 102.698 42.5785 102.698 40.9182C102.698 39.2578 103.956 37.9157 105.738 37.9095M107.201 40.3064C107.058 39.6947 106.398 39.2515 105.732 39.2515C105.065 39.2515 104.43 39.6822 104.262 40.3064H107.201Z" fill="#323942"/>
<path d="M77.624 38.6708L77.5805 38.084H76.21V43.7769H77.686V40.8493C77.686 39.1015 80.0906 38.9704 80.0906 40.4623V43.7769H81.5666V40.3312C81.5666 37.7782 78.7574 37.4661 77.6179 38.6708" fill="#323942"/>
<path d="M85.3522 42.3663H84.2188V37.9344H85.3522C86.6536 37.9344 87.5693 38.8457 87.5693 40.1504C87.5693 41.4549 86.6475 42.3663 85.3522 42.3663ZM85.3522 36.5299H82.7361V43.777H85.3522C87.4572 43.777 89.0454 42.2227 89.0454 40.1566C89.0454 38.0904 87.4572 36.5362 85.3522 36.5362V36.5299Z" fill="#323942"/>
<path d="M91.4626 38.696L91.4191 38.078H90.0486V43.7708H91.5246V41.2989C91.5246 39.9007 92.5838 39.3015 93.7546 39.5574V38.0343C93.0385 37.8533 91.9922 37.9657 91.4565 38.6898" fill="#323942"/>
<path d="M101.153 38.0781L99.7578 42.1667L98.3749 38.0781H96.8057L98.8794 43.7709H100.648L102.723 38.0781H101.153Z" fill="#323942"/>
<path d="M75.0635 38.0781H73.5874V43.7709H75.0635V38.0781Z" fill="#323942"/>
<path d="M75.0635 35.8744H73.5874V37.3538H75.0635V35.8744Z" fill="#323942"/>
<path d="M96.0405 38.0781H94.564V43.7709H96.0405V38.0781Z" fill="#323942"/>
<path d="M96.0405 35.8744H94.564V37.3538H96.0405V35.8744Z" fill="#323942"/>
<path fill-rule="evenodd" clip-rule="evenodd" d="M60.956 37.9156C60.1898 37.9343 59.5916 38.2277 59.2182 38.6022L59.1808 35.8744H57.8103V43.7707H59.1747L59.2182 43.2463C59.5854 43.6209 60.1898 43.9143 60.956 43.933C62.6374 43.933 63.8891 42.5847 63.8891 40.9243C63.8891 39.2639 62.6374 37.9156 60.956 37.9156ZM59.3053 40.9243C59.3053 40.0192 59.9967 39.2888 60.85 39.2888C61.7032 39.2888 62.3946 40.0192 62.3946 40.9243C62.3946 41.8294 61.7032 42.5597 60.85 42.5597C59.9967 42.5597 59.3053 41.8294 59.3053 40.9243Z" fill="#323942"/>
</g>
<defs>
<clipPath id="clip0_669_20332">
<rect width="107.9" height="45.0571" fill="white" transform="translate(0.828613 0.942856)"/>
</clipPath>
</defs>
</svg>
