<svg width="137" height="38" viewBox="0 0 137 38" fill="none" xmlns="http://www.w3.org/2000/svg">
<g clip-path="url(#clip0_669_20694)">
<path d="M65.3147 11.8897C65.283 11.6596 65.1009 11.4702 64.8714 11.4702H61.8143C61.5784 11.4702 61.3884 11.6689 61.411 11.9065C61.4898 12.7306 61.7021 13.434 62.0474 14.0166C62.4718 14.68 63.0019 15.2166 63.6383 15.6264C64.2939 16.0361 65.0364 16.3288 65.8654 16.5044C66.6948 16.6801 67.5433 16.7679 68.4109 16.7679C69.2594 16.7679 70.0884 16.6801 70.8984 16.5044C71.7275 16.3484 72.4603 16.0654 73.0965 15.6557C73.7329 15.2459 74.2439 14.7093 74.6295 14.0459C75.0345 13.363 75.237 12.5239 75.237 11.5288C75.237 10.8263 75.102 10.241 74.832 9.77265C74.562 9.28485 74.2054 8.88484 73.7619 8.57263C73.3184 8.24092 72.8074 7.97751 72.2289 7.78237C71.6698 7.58726 71.0913 7.42141 70.4934 7.28481C69.9149 7.14824 69.346 7.0214 68.7869 6.90432C68.2278 6.78725 67.7263 6.66041 67.2828 6.52384C66.8587 6.36772 66.5114 6.17261 66.2415 5.93846C65.9715 5.7043 65.8367 5.40185 65.8367 5.03113C65.8367 4.71891 65.9138 4.47503 66.0679 4.29941C66.2223 4.10427 66.4054 3.95794 66.6175 3.86039C66.8489 3.76281 67.0997 3.70427 67.3695 3.68477C67.6395 3.64573 67.8903 3.62623 68.1217 3.62623C68.8544 3.62623 69.4908 3.77257 70.0308 4.06526C70.4782 4.29169 70.7602 4.69912 70.8765 5.28751C70.9192 5.50365 71.096 5.67505 71.3137 5.67505H74.3804C74.6234 5.67505 74.8163 5.46424 74.78 5.2209C74.67 4.48633 74.4464 3.86697 74.1089 3.3628C73.7234 2.73841 73.2315 2.24084 72.6339 1.87011C72.036 1.49937 71.3515 1.23595 70.5803 1.07985C69.8283 0.923753 69.0473 0.845703 68.2374 0.845703C67.4274 0.845703 66.6369 0.923753 65.8654 1.07985C65.0943 1.21644 64.3999 1.4701 63.7829 1.84084C63.1659 2.19206 62.6647 2.67987 62.2789 3.30426C61.9124 3.92866 61.7293 4.72867 61.7293 5.7043C61.7293 6.36772 61.8643 6.93358 62.1343 7.40189C62.4043 7.85067 62.7609 8.23116 63.2044 8.54337C63.6479 8.83606 64.1494 9.07995 64.7085 9.27509C65.287 9.4507 65.8753 9.60679 66.4729 9.74339C67.9384 10.0556 69.0763 10.3678 69.886 10.68C70.7153 10.9922 71.1298 11.4605 71.1298 12.0849C71.1298 12.4556 71.0429 12.7678 70.8694 13.0215C70.6959 13.2556 70.4743 13.4507 70.2043 13.6068C69.9534 13.7434 69.6643 13.8508 69.3364 13.9288C69.0279 13.9874 68.729 14.0166 68.4398 14.0166C68.0349 14.0166 67.6395 13.9678 67.2539 13.8703C66.8874 13.7727 66.5598 13.6264 66.2704 13.4312C65.9813 13.2166 65.7403 12.9532 65.5474 12.641C65.4303 12.4172 65.3527 12.1668 65.3147 11.8897Z" fill="#323942"/>
<path d="M90.3913 16.3873C90.621 16.3873 90.807 16.1989 90.807 15.9666V1.67604C90.807 1.44371 90.621 1.25537 90.3913 1.25537H87.1154C86.8859 1.25537 86.6999 1.44371 86.6999 1.67604V9.18717C86.6999 10.7287 86.449 11.8409 85.9479 12.5238C85.4464 13.1872 84.6365 13.519 83.518 13.519C82.5346 13.519 81.85 13.2165 81.4645 12.6116C81.0789 11.9872 80.886 11.0506 80.886 9.80184V1.67604C80.886 1.44371 80.6999 1.25537 80.4702 1.25537H77.1943C76.9648 1.25537 76.7788 1.44371 76.7788 1.67604V10.5628C76.7788 11.4994 76.8559 12.3579 77.01 13.1385C77.1835 13.8994 77.4729 14.5531 77.8779 15.0995C78.2828 15.6263 78.8324 16.036 79.5265 16.3287C80.24 16.6214 81.1464 16.7678 82.2454 16.7678C83.113 16.7678 83.9615 16.5727 84.7909 16.1824C85.6114 15.7962 86.2809 15.1711 86.7993 14.3072C86.8093 14.2904 86.8275 14.2799 86.8469 14.2799C86.8773 14.2799 86.9024 14.305 86.9024 14.336V15.9666C86.9024 16.1989 87.0884 16.3873 87.3179 16.3873H90.3913Z" fill="#323942"/>
<path d="M100.314 13.6654C99.6582 13.6654 99.0991 13.5288 98.6362 13.2556C98.1736 12.9824 97.7976 12.6312 97.5082 12.2019C97.2382 11.7532 97.0357 11.2361 96.9008 10.6507C96.7852 10.0653 96.7272 9.47019 96.7272 8.86532C96.7272 8.24092 96.7852 7.63604 96.9008 7.05066C97.0166 6.4653 97.2093 5.94822 97.4792 5.49943C97.7686 5.05065 98.1348 4.68966 98.5783 4.41649C99.0412 4.1238 99.6101 3.97746 100.285 3.97746C100.941 3.97746 101.49 4.1238 101.934 4.41649C102.396 4.68966 102.772 5.06038 103.062 5.52869C103.351 5.97747 103.553 6.49456 103.669 7.07994C103.804 7.6653 103.872 8.26044 103.872 8.86532C103.872 9.47019 103.814 10.0653 103.698 10.6507C103.582 11.2361 103.38 11.7532 103.091 12.2019C102.821 12.6312 102.454 12.9824 101.992 13.2556C101.548 13.5288 100.989 13.6654 100.314 13.6654ZM93.1804 1.25546C92.9507 1.25546 92.7646 1.4438 92.7646 1.67613V19.0918C92.7646 19.3242 92.9507 19.5125 93.1804 19.5125H96.4563C96.6857 19.5125 96.8718 19.3242 96.8718 19.0918V14.5525C96.8718 14.5313 96.889 14.5142 96.9098 14.5142C96.9223 14.5142 96.9339 14.5205 96.941 14.5309C97.4407 15.2641 98.0732 15.8244 98.8387 16.2118C99.6293 16.5825 100.487 16.7679 101.413 16.7679C102.512 16.7679 103.467 16.5532 104.277 16.124C105.106 15.6947 105.79 15.1191 106.33 14.3971C106.889 13.6751 107.304 12.8459 107.574 11.9093C107.844 10.9727 107.979 9.99704 107.979 8.98239C107.979 7.90921 107.844 6.8848 107.574 5.90917C107.304 4.91405 106.889 4.04574 106.33 3.30426C105.771 2.5628 105.067 1.96767 104.219 1.51888C103.37 1.0701 102.358 0.845703 101.182 0.845703C100.256 0.845703 99.4077 1.03107 98.6362 1.40181C97.8705 1.76985 97.238 2.35903 96.7383 3.16936C96.7314 3.1804 96.7194 3.1872 96.7066 3.1872C96.686 3.1872 96.6696 3.17036 96.6696 3.1496V1.67613C96.6696 1.4438 96.4833 1.25546 96.2538 1.25546H93.1804Z" fill="#323942"/>
<path d="M119.679 6.94727C119.707 7.07666 119.608 7.19702 119.477 7.19702H113.271C113.15 7.19702 113.054 7.0933 113.069 6.97173C113.097 6.73718 113.148 6.48055 113.221 6.20187C113.336 5.83114 113.52 5.47991 113.77 5.1482C114.04 4.81649 114.387 4.54332 114.812 4.32867C115.255 4.09451 115.805 3.97746 116.46 3.97746C117.463 3.97746 118.205 4.25063 118.687 4.79697C119.148 5.2993 119.479 6.01607 119.679 6.94727ZM113.077 10.2697C113.054 10.0313 113.245 9.83119 113.481 9.83119H123.447C123.666 9.83119 123.848 9.65945 123.855 9.43811C123.889 8.40874 123.786 7.41781 123.547 6.4653C123.277 5.39212 122.833 4.43598 122.216 3.59695C121.618 2.75792 120.847 2.0945 119.902 1.60669C118.957 1.09937 117.849 0.845703 116.576 0.845703C115.438 0.845703 114.397 1.05058 113.452 1.46034C112.527 1.87011 111.726 2.43597 111.051 3.15793C110.376 3.86039 109.856 4.69942 109.489 5.67505C109.123 6.65065 108.94 7.70434 108.94 8.83606C108.94 10.0068 109.113 11.08 109.461 12.0556C109.827 13.0312 110.338 13.8703 110.994 14.5727C111.649 15.2752 112.449 15.8215 113.394 16.2118C114.339 16.5825 115.4 16.7679 116.576 16.7679C118.273 16.7679 119.719 16.3776 120.915 15.5971C121.987 14.8972 122.811 13.7814 123.387 12.2497C123.487 11.9829 123.287 11.7044 123.005 11.7044H120.272C120.087 11.7044 119.928 11.8303 119.844 11.9968C119.661 12.3603 119.333 12.7116 118.861 13.0507C118.263 13.4605 117.55 13.6654 116.721 13.6654C115.564 13.6654 114.677 13.363 114.06 12.758C113.511 12.2209 113.184 11.3915 113.077 10.2697Z" fill="#323942"/>
<path d="M125.864 1.25539C125.634 1.25539 125.448 1.44372 125.448 1.67605V15.9666C125.448 16.199 125.634 16.3873 125.864 16.3873H129.14C129.369 16.3873 129.555 16.199 129.555 15.9666V9.76087C129.555 9.07796 129.623 8.4438 129.758 7.85842C129.893 7.27303 130.115 6.76571 130.423 6.33645C130.751 5.88766 131.175 5.53643 131.696 5.28278C132.216 5.02911 132.853 4.90227 133.605 4.90227C133.855 4.90227 134.116 4.92179 134.386 4.96081C134.452 4.96563 134.516 4.97102 134.578 4.97701C134.839 5.00229 135.08 4.80097 135.08 4.5355V1.49992C135.08 1.31331 134.959 1.14637 134.779 1.10745C134.566 1.06169 134.368 1.03882 134.183 1.03882C133.663 1.03882 133.161 1.11687 132.679 1.27297C132.197 1.42907 131.744 1.65346 131.32 1.94615C130.895 2.21932 130.519 2.56079 130.192 2.97055C129.869 3.3548 129.612 3.77686 129.42 4.23677C129.414 4.24983 129.402 4.25838 129.388 4.25838C129.368 4.25838 129.353 4.24266 129.353 4.22326V1.67605C129.353 1.44372 129.167 1.25539 128.937 1.25539H125.864Z" fill="#323942"/>
<path d="M62.8059 22.0379C62.5762 22.0379 62.3901 22.2263 62.3901 22.4586V36.7492C62.3901 36.9814 62.5762 37.1699 62.8059 37.1699H66.0818C66.3112 37.1699 66.4973 36.9814 66.4973 36.7492V29.2381C66.4973 27.6965 66.7481 26.594 67.2496 25.9307C67.7507 25.2477 68.5607 24.9063 69.6791 24.9063C70.6626 24.9063 71.3471 25.2185 71.7327 25.8428C72.1183 26.4478 72.3112 27.3746 72.3112 28.6234V36.7492C72.3112 36.9814 72.4972 37.1699 72.727 37.1699H76.0028C76.2323 37.1699 76.4183 36.9814 76.4183 36.7492V27.8624C76.4183 26.9258 76.3317 26.077 76.1582 25.316C76.0038 24.5355 75.7243 23.8819 75.3193 23.355C74.9143 22.8087 74.3552 22.3891 73.6417 22.0965C72.9476 21.7843 72.0508 21.6282 70.9517 21.6282C70.0841 21.6282 69.2356 21.833 68.4063 22.2428C67.5858 22.629 66.9162 23.2541 66.3979 24.118C66.3878 24.1349 66.3699 24.1453 66.3503 24.1453C66.3198 24.1453 66.295 24.1202 66.295 24.0892V22.4586C66.295 22.2263 66.1088 22.0379 65.8793 22.0379H62.8059Z" fill="#323942"/>
<path d="M81.8005 29.6186C81.8005 29.0136 81.8582 28.4185 81.974 27.8331C82.0896 27.2477 82.2825 26.7306 82.5525 26.2819C82.8417 25.8331 83.2177 25.4721 83.6806 25.199C84.1432 24.9063 84.7217 24.7599 85.416 24.7599C86.1101 24.7599 86.6886 24.9063 87.1515 25.199C87.6336 25.4721 88.0096 25.8331 88.2796 26.2819C88.5687 26.7306 88.7712 27.2477 88.887 27.8331C89.0026 28.4185 89.0605 29.0136 89.0605 29.6186C89.0605 30.2233 89.0026 30.8186 88.887 31.404C88.7712 31.9698 88.5687 32.4869 88.2796 32.9553C88.0096 33.404 87.6336 33.7649 87.1515 34.0381C86.6886 34.3113 86.1101 34.4479 85.416 34.4479C84.7217 34.4479 84.1432 34.3113 83.6806 34.0381C83.2177 33.7649 82.8417 33.404 82.5525 32.9553C82.2825 32.4869 82.0896 31.9698 81.974 31.404C81.8582 30.8186 81.8005 30.2233 81.8005 29.6186ZM77.6931 29.6186C77.6931 30.8283 77.8765 31.9211 78.2427 32.8966C78.6091 33.8722 79.1297 34.7112 79.8046 35.4138C80.4796 36.0968 81.2895 36.6235 82.2342 36.9943C83.1791 37.3649 84.2397 37.5504 85.416 37.5504C86.5922 37.5504 87.6527 37.3649 88.5976 36.9943C89.5617 36.6235 90.3812 36.0968 91.0562 35.4138C91.7311 34.7112 92.2517 33.8722 92.6181 32.8966C92.9846 31.9211 93.1677 30.8283 93.1677 29.6186C93.1677 28.4088 92.9846 27.316 92.6181 26.3405C92.2517 25.3453 91.7311 24.5063 91.0562 23.8233C90.3812 23.1209 89.5617 22.5843 88.5976 22.2135C87.6527 21.8233 86.5922 21.6282 85.416 21.6282C84.2397 21.6282 83.1791 21.8233 82.2342 22.2135C81.2895 22.5843 80.4796 23.1209 79.8046 23.8233C79.1297 24.5063 78.6091 25.3453 78.2427 26.3405C77.8765 27.316 77.6931 28.4088 77.6931 29.6186Z" fill="#323942"/>
<path d="M102.169 37.1701C102.347 37.1701 102.506 37.0551 102.563 36.8842L107.343 22.5936C107.435 22.3209 107.234 22.0381 106.95 22.0381H103.757C103.575 22.0381 103.414 22.1583 103.36 22.3346L100.307 32.342C100.301 32.3586 100.286 32.37 100.269 32.37C100.252 32.37 100.237 32.3586 100.232 32.342L97.178 22.3346C97.1243 22.1583 96.963 22.0381 96.7806 22.0381H93.3595C93.0743 22.0381 92.8738 22.322 92.9661 22.595L97.8012 36.8857C97.8586 37.0558 98.0167 37.1701 98.1944 37.1701H102.169Z" fill="#323942"/>
<path d="M108.317 26.6916C108.077 26.6916 107.886 26.4872 107.915 26.2468C108.013 25.4673 108.24 24.8058 108.598 24.2623C109.022 23.6184 109.562 23.1014 110.218 22.7111C110.874 22.3209 111.606 22.0477 112.416 21.8916C113.245 21.716 114.075 21.6282 114.904 21.6282C115.656 21.6282 116.417 21.6867 117.189 21.8038C117.96 21.9013 118.664 22.1062 119.3 22.4184C119.937 22.7306 120.457 23.1697 120.862 23.7355C121.267 24.2819 121.47 25.0136 121.47 25.9307V33.8039C121.47 34.4869 121.508 35.1406 121.585 35.7649C121.618 36.0267 121.66 36.2609 121.713 36.4678C121.794 36.7879 121.567 37.1699 121.24 37.1699H118.125C117.946 37.1699 117.786 37.0542 117.735 36.8808C117.694 36.743 117.657 36.6051 117.623 36.4673C117.578 36.1733 117.205 36.0354 116.974 36.2192C116.451 36.6347 115.867 36.9419 115.222 37.1406C114.335 37.4138 113.429 37.5504 112.503 37.5504C111.789 37.5504 111.124 37.4625 110.507 37.2869C109.89 37.1113 109.35 36.8381 108.887 36.4673C108.425 36.0968 108.058 35.6283 107.788 35.0626C107.538 34.4966 107.412 33.8235 107.412 33.0429C107.412 32.1844 107.557 31.482 107.846 30.9356C108.155 30.3698 108.54 29.9211 109.003 29.5893C109.485 29.2574 110.025 29.0136 110.623 28.8576C111.24 28.682 111.857 28.5454 112.474 28.4478C113.091 28.3502 113.698 28.2722 114.296 28.2136C114.894 28.155 115.424 28.0673 115.887 27.9503C116.35 27.8331 116.716 27.6672 116.986 27.4526C117.256 27.2184 117.382 26.8869 117.362 26.4574C117.362 26.0087 117.285 25.6575 117.131 25.4038C116.996 25.1307 116.803 24.9258 116.552 24.7892C116.321 24.6331 116.041 24.5355 115.714 24.4965C115.405 24.438 115.068 24.4087 114.701 24.4087C113.891 24.4087 113.255 24.5843 112.792 24.9355C112.404 25.23 112.152 25.6893 112.035 26.3129C111.995 26.526 111.819 26.6916 111.604 26.6916H108.317ZM117.362 30.543C117.362 30.2414 116.978 30.044 116.697 30.1453C116.446 30.2233 116.167 30.2916 115.858 30.3502C115.569 30.4088 115.26 30.4575 114.933 30.4965C114.605 30.5355 114.277 30.5844 113.949 30.643C113.641 30.7014 113.332 30.7794 113.024 30.877C112.734 30.9746 112.474 31.1112 112.243 31.2868C112.03 31.443 111.857 31.6479 111.722 31.9015C111.587 32.155 111.52 32.4772 111.52 32.8673C111.52 33.2381 111.587 33.5503 111.722 33.8039C111.857 34.0577 112.04 34.2624 112.272 34.4186C112.503 34.5552 112.773 34.6528 113.081 34.7112C113.39 34.7698 113.708 34.7991 114.036 34.7991C114.846 34.7991 115.473 34.6625 115.916 34.3893C116.36 34.1161 116.687 33.7942 116.899 33.4234C117.112 33.0332 117.237 32.6431 117.275 32.2527C117.333 31.8625 117.362 31.5503 117.362 31.3161V30.543Z" fill="#323942"/>
<path d="M126.866 32.6721C126.834 32.4422 126.652 32.2527 126.422 32.2527H123.366C123.13 32.2527 122.939 32.4513 122.962 32.689C123.041 33.5131 123.253 34.2164 123.599 34.7991C124.023 35.4624 124.553 35.9992 125.19 36.4089C125.845 36.8187 126.588 37.1113 127.417 37.2869C128.246 37.4625 129.094 37.5504 129.962 37.5504C130.81 37.5504 131.64 37.4625 132.45 37.2869C133.279 37.1309 134.011 36.8478 134.648 36.4382C135.284 36.0285 135.795 35.4918 136.181 34.8284C136.586 34.1454 136.788 33.3064 136.788 32.3113C136.788 31.6089 136.653 31.0235 136.383 30.5551C136.113 30.0673 135.757 29.6672 135.313 29.355C134.87 29.0235 134.359 28.76 133.78 28.5648C133.221 28.3698 132.642 28.2039 132.045 28.0673C131.466 27.9307 130.897 27.8038 130.338 27.6868C129.779 27.5696 129.278 27.4429 128.834 27.3063C128.41 27.1501 128.063 26.9552 127.793 26.721C127.523 26.4867 127.388 26.1842 127.388 25.8137C127.388 25.5014 127.465 25.2575 127.619 25.0819C127.773 24.8867 127.957 24.7404 128.169 24.6428C128.4 24.5453 128.651 24.4867 128.921 24.4672C129.191 24.4282 129.441 24.4087 129.673 24.4087C130.406 24.4087 131.042 24.555 131.582 24.8477C132.029 25.0742 132.311 25.4816 132.428 26.07C132.47 26.2861 132.647 26.4574 132.865 26.4574H135.931C136.175 26.4574 136.367 26.2468 136.331 26.0034C136.221 25.2688 135.998 24.6494 135.66 24.1453C135.274 23.5209 134.783 23.0233 134.185 22.6526C133.587 22.2818 132.903 22.0184 132.131 21.8623C131.379 21.7062 130.598 21.6282 129.789 21.6282C128.979 21.6282 128.188 21.7062 127.417 21.8623C126.645 21.9989 125.951 22.2526 125.334 22.6233C124.717 22.9745 124.216 23.4623 123.83 24.0867C123.464 24.7111 123.281 25.5111 123.281 26.4867C123.281 27.1501 123.416 27.7161 123.686 28.1843C123.955 28.6331 124.312 29.0136 124.756 29.3257C125.199 29.6186 125.701 29.8624 126.26 30.0577C126.838 30.2332 127.426 30.3892 128.024 30.5258C129.49 30.838 130.627 31.1502 131.437 31.4624C132.266 31.7746 132.681 32.243 132.681 32.8673C132.681 33.2381 132.594 33.5503 132.421 33.8039C132.247 34.0381 132.025 34.2333 131.755 34.3893C131.505 34.5259 131.215 34.6332 130.888 34.7112C130.579 34.7698 130.28 34.7991 129.991 34.7991C129.586 34.7991 129.191 34.7504 128.805 34.6528C128.439 34.5552 128.111 34.4089 127.822 34.2137C127.532 33.9991 127.291 33.7356 127.099 33.4234C126.982 33.1996 126.904 32.9493 126.866 32.6721Z" fill="#323942"/>
<path fill-rule="evenodd" clip-rule="evenodd" d="M7.86694 34.1306V4.20231C7.86694 2.48564 9.2422 1.094 10.9387 1.094L37.0664 1.09399C46.9303 1.09399 54.9264 9.18531 54.9264 19.1665C54.9264 29.1477 46.9303 37.239 37.0664 37.239H10.9387C9.2422 37.239 7.86694 35.8472 7.86694 34.1306Z" fill="#323942"/>
<path d="M37.0117 7.19486L37.0363 31.2717C32.7392 31.3462 28.442 30.8492 24.8571 30.0542C17.2451 27.8677 15.8946 26.1284 19.0867 24.4636C2.07028 18.9475 2.48771 18.5748 17.5889 12.9345C14.6423 11.1207 15.3298 9.92805 17.9818 9.03356C18.85 8.78031 19.4121 8.65484 20.2715 8.48091C25.4281 7.56159 32.6901 7.12033 37.0117 7.19486Z" fill="white"/>
<path d="M36.7677 31.4218C43.5077 31.4218 48.9713 25.8931 48.9713 19.0729C48.9713 12.2527 43.5077 6.72388 36.7677 6.72388C30.0278 6.72388 24.564 12.2527 24.564 19.0729C24.564 25.8931 30.0278 31.4218 36.7677 31.4218Z" fill="white"/>
<path d="M44.0097 8.33768C41.7016 6.77232 39.0742 6.0766 36.4959 6.15115C32.0761 6.12629 25.3481 6.62323 20.4371 7.54258C19.1357 7.76621 17.9325 8.03953 16.9503 8.36254C15.9681 8.6607 15.1333 9.03341 14.5685 9.43096C14.0283 9.82851 13.5618 10.4248 13.7828 11.1702C13.881 11.4933 14.102 11.7914 14.3966 12.0399C14.6422 12.2387 14.9368 12.4623 15.3052 12.6611C13.3408 13.2574 5.31138 15.9657 3.73989 16.5869C2.95413 16.8851 2.2666 17.2081 1.77551 17.5311C1.52996 17.6802 1.30897 17.8541 1.13708 18.0529C0.9652 18.2517 0.817871 18.5001 0.817871 18.7983C0.817871 19.1213 0.989753 19.3698 1.16164 19.5686C1.33352 19.7673 1.57907 19.9164 1.84917 20.0655C2.36482 20.3637 3.10146 20.6618 3.91177 20.96C5.55694 21.5563 7.74231 22.1527 9.82946 22.6993C10.1978 22.7987 10.5415 22.8981 10.8853 22.9726C11.7447 23.1962 12.555 23.4199 13.3162 23.6186C14.0529 23.8174 14.7404 24.0162 15.3052 24.1901C15.7226 24.3143 16.0664 24.4386 16.3365 24.5628C15.919 24.8361 15.5998 25.184 15.4525 25.5815C15.2561 26.1778 15.477 26.7741 15.8699 27.2214C16.2628 27.6687 16.8521 28.116 17.5888 28.5136C18.3254 28.911 19.2585 29.3086 20.2898 29.6814C24.4641 31.1472 30.8484 32.2653 37.2325 32.166C41.2105 31.9921 45.041 29.9794 47.4473 26.3767C51.4496 20.4133 49.9029 12.3381 44.0097 8.33768ZM36.8152 7.19473C36.9379 7.19473 37.0606 7.19473 37.1834 7.19473C39.3442 7.24443 41.505 7.89044 43.4204 9.20734C45.0165 10.2758 46.2442 11.692 47.128 13.2574C46.8089 13.7543 46.2933 14.4501 45.7285 15.0961L39.4669 14.2761C38.1902 11.866 36.7168 9.55519 36.0293 8.48677L36.8152 7.19473ZM38.6567 14.7234L35.44 20.0904C34.9489 20.1897 33.8439 20.2394 32.6408 20.2891C31.4622 20.3388 30.1852 20.3637 29.3014 20.2891L25.5936 15.2203C25.9129 14.2761 26.3795 13.3816 26.9442 12.512C28.0737 10.8224 29.5223 9.53035 31.192 8.611L35.1946 8.98371C35.9311 10.0024 37.4045 12.3381 38.6567 14.7234ZM25.078 29.9546C17.4905 27.768 16.1646 26.0536 19.3322 24.3889C1.72639 18.6989 3.56799 18.5001 17.8589 12.9592C14.9368 11.1454 15.5698 10.0138 18.1972 9.11927C18.9991 8.87968 19.6492 8.72284 20.609 8.5613C23.7906 8.02587 27.8526 7.54258 31.4622 7.3438C29.375 8.31285 27.509 9.85337 26.1092 11.9405C22.1314 17.9287 23.6538 26.0288 29.5468 30.0043C30.038 30.3274 30.5536 30.6254 31.0693 30.874C28.9575 30.6751 26.9197 30.3522 25.078 29.9546ZM36.9134 29.7807L31.9779 30.1535C31.3395 29.8801 30.7254 29.5321 30.1361 29.1347C29.0803 28.414 28.1719 27.5445 27.4105 26.5754L29.4487 21.2333C30.3818 21.3079 31.5849 21.283 32.6899 21.2333C33.8685 21.1836 34.9734 21.0842 35.5627 20.9848L39.8353 25.8798C39.5653 26.327 39.0742 27.0475 38.4849 27.8177C37.9938 28.5136 37.4045 29.2341 36.9134 29.7807ZM46.5878 25.8301C44.5008 28.9358 41.2596 30.7747 37.8465 31.0975L37.699 30.3025C38.2147 29.7311 38.7549 29.0354 39.2706 28.3892C39.9335 27.4948 40.4982 26.6251 40.7439 26.153L46.2687 22.9229C46.6862 23.1217 47.2019 23.395 47.7421 23.6932C47.4228 24.4137 47.0544 25.1343 46.5878 25.8301ZM46.7353 22.0781L46.3669 15.7918C46.8335 15.2452 47.2755 14.6737 47.6191 14.2016C48.7979 16.8602 48.9698 19.9164 48.0611 22.7738C47.5946 22.5005 47.128 22.2769 46.7353 22.0781Z" fill="#323942"/>
</g>
<defs>
<clipPath id="clip0_669_20694">
<rect width="136.218" height="36.7571" fill="white" transform="translate(0.642822 0.800049)"/>
</clipPath>
</defs>
</svg>
