<svg width="97" height="54" viewBox="0 0 97 54" fill="none" xmlns="http://www.w3.org/2000/svg">
<g clip-path="url(#clip0_669_20402)">
<path d="M22.4631 48.0347C11.8006 48.0347 4.50788 45.2717 2.69728 40.0472C1.94286 37.8368 2.19433 35.325 3.55229 32.562C8.02851 23.4191 23.8713 12.8696 42.9833 6.28866L44.4922 5.7863C69.5389 -2.45239 92.2721 -1.49791 95.5915 8.09715C97.7039 14.1255 91.7188 22.4144 79.6984 30.201L79.5978 30.2512H79.4972C77.234 30.1507 75.7754 30.4521 75.1216 31.2057C74.7695 31.6076 74.669 32.1602 74.8198 32.8635L74.8701 33.1146L74.6187 33.2653C72.3051 34.5715 69.7904 35.8274 67.2253 37.033L66.9236 37.1837L63.1012 30.3517L61.7935 30.854L56.4623 41.4036L55.3055 41.8054C51.3825 43.1618 47.4595 44.267 43.5868 45.2215L43.2348 45.322L43.1845 45.0708C43.1342 45.121 43.0839 45.121 43.0336 45.1713C42.7821 45.322 42.4804 45.4727 42.2289 45.322C42.1283 45.2717 41.9774 45.121 41.9774 44.8698C41.7762 42.4585 41.9774 39.8965 42.1283 37.5856C42.2792 34.8729 42.4804 32.3611 41.9271 31.4066C41.5248 30.7536 40.7703 30.3014 40.1165 30.4019C39.6639 30.4521 39.3118 30.7535 39.1106 31.3061C38.4065 33.5165 38.6077 38.1382 38.9094 44.5182L39.01 46.2262L38.7083 46.2764C32.6729 47.4821 27.2411 48.0347 22.4631 48.0347ZM42.3798 7.34362C23.821 13.8743 8.53146 24.1224 4.20612 32.9137C2.94875 35.4757 2.69728 37.7866 3.4014 39.796C5.81555 46.7788 19.7975 49.1399 38.155 45.6736L38.1047 44.5684C37.803 38.088 37.6018 33.4161 38.3562 31.1052C38.6077 30.3014 39.2112 29.7488 39.9656 29.6986C40.9212 29.5981 41.9271 30.1507 42.4804 31.055C43.1342 32.1602 42.9833 34.5715 42.7821 37.6359C42.6312 39.8462 42.4804 42.3078 42.6312 44.5684C42.6312 44.5684 42.6312 44.5684 42.6815 44.5684C42.933 44.4177 43.2348 44.267 43.5366 44.4177C43.5868 44.4177 43.6371 44.468 43.6874 44.5182C47.4595 43.6139 51.2819 42.5088 55.054 41.2026L55.909 40.9012L61.2403 30.3517L63.403 29.5479L67.175 36.3297C69.5389 35.2245 71.8524 34.0691 73.9648 32.8635C73.8642 32.0597 74.0654 31.3564 74.5181 30.854C75.3228 29.9498 76.8819 29.5479 79.3464 29.6484C91.0147 22.0627 96.7986 14.1255 94.8371 8.44881C91.6183 -1.04578 68.4324 -1.64861 43.2348 7.0422L42.3798 7.34362Z" fill="#323942"/>
<path d="M8.53118 23.1177C7.37441 23.1177 6.36851 22.967 5.41291 22.7158C4.65849 22.4646 4.05496 22.2134 3.60231 21.8618C3.19995 21.5101 2.79759 21.3594 2.29464 21.4097C1.7917 21.4599 1.33905 21.6608 1.03728 22.0627C0.685215 22.4646 0.534331 22.9167 0.584626 23.4191C0.63492 23.9215 0.836099 24.3234 1.23846 24.675C2.94847 26.1318 5.36262 26.8854 8.48089 26.8854C11.1968 26.8854 13.2086 26.2826 14.6168 25.0769C15.7736 24.0722 16.3772 22.8163 16.3772 21.3594C16.3772 19.35 15.3713 17.8429 13.3092 16.9387C12.6051 16.587 11.75 16.3358 10.7441 16.1349C10.3921 16.0847 9.98973 15.9842 9.58737 15.934L9.08442 15.8335L8.83295 15.7832H8.63177C6.97205 15.6325 5.86557 15.3311 5.26203 14.879C5.06085 14.7283 4.90997 14.5273 4.80938 14.3766C4.80938 14.3264 4.75908 14.2259 4.75908 14.1255V14.025V13.9245C4.75908 13.3719 5.11115 12.9198 5.76498 12.5681C6.41881 12.2165 7.32411 12.0658 8.48089 12.0658C9.48678 12.0658 10.3921 12.2165 11.1968 12.4677C11.9009 12.6686 12.4039 12.97 12.8062 13.2715C13.1583 13.6231 13.6109 13.7738 14.1139 13.7236C14.6168 13.6733 15.0695 13.4724 15.3713 13.0705C15.7233 12.7189 15.8742 12.2667 15.8239 11.7644C15.7736 11.262 15.5724 10.8099 15.1701 10.5085C13.5606 9.05163 11.2974 8.34833 8.3803 8.34833C5.96616 8.34833 4.10525 8.95116 2.79759 10.1066C1.69111 11.1113 1.08757 12.3672 1.08757 13.8743C1.08757 17.0391 3.50172 18.8979 8.27971 19.4002C10.1406 19.6012 11.4483 19.9026 12.1524 20.3547C12.4039 20.5054 12.5548 20.6561 12.6051 20.8571C12.6553 20.9073 12.6553 21.0078 12.7056 21.058V21.1585V21.259C12.7056 21.8116 12.3033 22.2637 11.4986 22.5651C10.7441 22.9167 9.73826 23.0675 8.53118 23.1177ZM22.8149 17.8429H28.3473C29.1017 17.8429 29.8058 17.5415 30.4094 16.9889C30.9626 16.3861 31.2644 15.6828 31.2644 14.9292C31.2644 14.1255 30.9626 13.4222 30.4094 12.8696C29.8058 12.317 29.1017 12.0156 28.3473 12.0156H22.8149V17.8429ZM19.0931 10.2071C19.0931 9.7047 19.2942 9.25258 19.6463 8.90093C19.9984 8.54928 20.451 8.39857 20.954 8.39857H28.3473C30.1579 8.39857 31.717 9.05163 33.0247 10.3075C34.3323 11.6137 34.9359 13.1207 34.9359 14.9795C34.9359 16.8382 34.2821 18.3453 33.0247 19.6514C31.717 20.9575 30.1579 21.5604 28.3473 21.5604H22.8149V24.9764C22.8149 25.4788 22.664 25.9309 22.3119 26.2826C21.9599 26.6342 21.5072 26.8351 21.0043 26.8351C20.5013 26.8351 20.0487 26.6342 19.6966 26.2826C19.3445 25.9309 19.1434 25.4788 19.1434 24.9764L19.0931 10.2071ZM41.776 19.4002L44.341 14.3264L46.8557 19.4505H41.776V19.4002ZM46.0007 9.35305C45.6989 8.75022 45.1457 8.4488 44.341 8.4488C43.5363 8.4488 42.983 8.75022 42.6813 9.35305L35.2879 24.1224C35.0365 24.5745 35.0365 25.0769 35.1874 25.529C35.3382 25.9811 35.64 26.3328 36.0927 26.584C36.5453 26.8351 37.0483 26.8351 37.5009 26.6844C37.9536 26.5337 38.3056 26.2323 38.5571 25.7802L39.9151 23.1177H48.7166L50.0746 25.7802C50.4266 26.4835 50.9799 26.7849 51.7343 26.7849C52.0361 26.7849 52.2875 26.7347 52.539 26.584C52.9917 26.3328 53.2934 25.9811 53.4443 25.529C53.5952 25.0267 53.5449 24.5745 53.3437 24.1224L46.0007 9.35305ZM59.5803 12.0156H65.6659C66.4706 12.0156 67.1245 12.317 67.728 12.8696C68.2812 13.4222 68.583 14.1255 68.583 14.9292C68.583 15.733 68.2812 16.3861 67.728 16.9889C67.1245 17.5415 66.4706 17.8429 65.6659 17.8429H59.5803V12.0156ZM55.8585 24.9262C55.8585 25.4285 56.0093 25.8807 56.3614 26.2323C56.7135 26.584 57.1661 26.7849 57.6691 26.7849C58.172 26.7849 58.6247 26.584 58.9767 26.2323C59.3288 25.8807 59.53 25.4285 59.53 24.9262V21.5101H64.8109L69.0357 26.1821C69.3877 26.584 69.8404 26.7849 70.3936 26.7849C70.8463 26.7849 71.2989 26.6342 71.651 26.3328C72.0031 25.9811 72.2042 25.5793 72.2545 25.0769C72.2545 24.5745 72.1036 24.1224 71.8019 23.7205L68.9854 20.6059C69.9913 20.0031 70.7457 19.2495 71.3492 18.2448C71.9528 17.2401 72.2545 16.1349 72.2545 14.9292C72.2545 13.1207 71.6007 11.5634 70.3433 10.2573C69.0357 8.95116 67.4765 8.34833 65.6659 8.34833H57.7194C57.2164 8.34833 56.7638 8.49904 56.4117 8.85069C56.0596 9.20234 55.9088 9.65447 55.9088 10.1568L55.8585 24.9262ZM74.9202 24.9262C74.9202 25.4285 75.071 25.8807 75.4734 26.2323C75.8254 26.584 76.2781 26.7849 76.7811 26.7849C77.284 26.7849 77.7366 26.584 78.0887 26.2323C78.4408 25.8807 78.5917 25.4285 78.5917 24.9262V19.4002H82.2129L88.0471 26.1821C88.3991 26.584 88.9021 26.8351 89.4553 26.8351C89.908 26.8351 90.3103 26.6844 90.6624 26.383C91.0647 26.0314 91.2659 25.6295 91.3162 25.1271C91.3665 24.6248 91.2156 24.1726 90.8636 23.7708L85.5323 17.5917L90.8636 11.4127C91.2156 11.0108 91.3665 10.5587 91.3162 10.0564C91.2659 9.55399 91.0647 9.10187 90.6624 8.80046C90.26 8.4488 89.8074 8.2981 89.3044 8.34833C88.8015 8.39857 88.3488 8.59951 88.0471 9.0014L82.2632 15.733H78.642V10.2071C78.642 9.7047 78.4911 9.25258 78.139 8.90093C77.7869 8.54928 77.3343 8.34833 76.8313 8.34833C76.3284 8.34833 75.8757 8.54928 75.5237 8.90093C75.1716 9.25258 74.9704 9.7047 74.9704 10.2071V24.9262H74.9202Z" fill="#323942"/>
<path d="M38.5596 46.6784C38.5596 47.1808 38.7105 47.6329 39.0625 47.9845C39.4146 48.3362 39.8672 48.5371 40.3702 48.5371H50.9321C51.435 48.5371 51.8877 48.3362 52.2397 47.9845C52.5918 47.6329 52.793 47.1808 52.793 46.6784C52.793 46.176 52.6421 45.7239 52.2397 45.3723C51.8877 45.0206 51.435 44.8699 50.9321 44.8699H42.2814V31.9091C42.2814 31.4067 42.1305 30.9546 41.7784 30.6029C41.4264 30.2513 40.9737 30.0503 40.4708 30.0503C39.9678 30.0503 39.5152 30.2513 39.1631 30.6029C38.811 30.9546 38.6602 31.4067 38.6602 31.9091V46.1258V46.6784H38.5596ZM60.2366 41.1525L62.8016 36.0284L65.3163 41.1525H60.2366ZM64.411 31.1053C64.1093 30.5024 63.556 30.201 62.7513 30.201C61.9466 30.201 61.3933 30.5024 61.0916 31.1053L53.6983 45.8746C53.4468 46.3268 53.4468 46.8291 53.5977 47.2812C53.7486 47.7334 54.0503 48.085 54.503 48.3362C54.9556 48.5874 55.4586 48.5874 55.9112 48.4367C56.3639 48.286 56.7159 47.9845 56.9674 47.5324L58.3254 44.8699H67.1269L68.4849 47.5324C68.837 48.2357 69.3902 48.5371 70.1446 48.5371C70.4464 48.5371 70.6979 48.4869 70.9493 48.3362C71.402 48.085 71.7037 47.7334 71.8546 47.2812C72.0055 46.7789 71.9552 46.3268 71.754 45.8746L64.411 31.1053ZM77.9906 44.8197V41.1525H85.6354C86.1383 41.1525 86.591 41.3534 86.943 41.7051C87.2951 42.0567 87.4963 42.5088 87.4963 43.0112C87.4963 43.5135 87.2951 43.9657 86.943 44.3173C86.591 44.669 86.1383 44.8699 85.6354 44.8699L77.9906 44.8197ZM77.9906 33.7678H84.5792C85.0821 33.7678 85.5348 33.9687 85.8868 34.3204C86.2389 34.672 86.4401 35.1242 86.4401 35.6265C86.4401 36.1289 86.2389 36.581 85.8868 36.9326C85.5348 37.2843 85.0821 37.4852 84.5792 37.4852H77.9906V33.7678ZM76.1297 30.1006C75.6267 30.1006 75.1741 30.2513 74.822 30.6029C74.47 30.9546 74.2688 31.4067 74.2688 31.9091V32.8133V46.6784C74.2688 47.1808 74.47 47.6329 74.822 47.9845C75.1741 48.3362 75.6267 48.5371 76.1297 48.5371H85.6354C87.1945 48.5371 88.4519 47.9845 89.5583 46.9296C90.6648 45.8746 91.2181 44.5685 91.2181 43.0112C91.2181 41.3032 90.5642 39.8966 89.2063 38.7914C89.8601 37.8369 90.1619 36.7819 90.1619 35.6767C90.1619 34.1697 89.6086 32.8635 88.5022 31.7583C87.446 30.6532 86.1383 30.1508 84.5792 30.1508L76.1297 30.1006Z" stroke="#323942" stroke-width="1.55083" stroke-miterlimit="22.9256" stroke-linejoin="round"/>
<path fill-rule="evenodd" clip-rule="evenodd" d="M22.1606 40.9514C22.7139 42.559 23.2671 44.1163 23.8203 45.7238C25.4298 46.2764 26.9889 46.829 28.5983 47.3816C26.9889 47.9342 25.4298 48.4868 23.8203 49.0394C23.2671 50.5967 22.7139 52.2043 22.1606 53.7616C21.6074 52.154 21.0541 50.5967 20.5009 48.9892C18.8915 48.4366 17.3323 47.884 15.7229 47.3314C17.3323 46.7788 18.8915 46.2262 20.5009 45.6736C21.0541 44.1163 21.6074 42.559 22.1606 40.9514Z" fill="#323942"/>
</g>
<defs>
<clipPath id="clip0_669_20402">
<rect width="95.5599" height="53.7524" fill="white" transform="translate(0.584961 0.0594482)"/>
</clipPath>
</defs>
</svg>
