<svg width="130" height="136" viewBox="0 0 130 136" fill="none" xmlns="http://www.w3.org/2000/svg">
<g clip-path="url(#clip0_680_23755)">
<path d="M47.922 103.497C46.6307 105.721 44.4412 106.961 41.87 106.961C37.3675 106.961 33.9766 103.966 33.9766 97.9553V85.1843H39.1303V96.9273C39.1303 100.514 40.8033 102.48 43.5542 102.48C46.3051 102.48 47.9332 100.514 47.9332 96.9273V85.1843H53.0869V106.536H47.9332V103.508L47.922 103.497Z" fill="white" fill-opacity="0.7"/>
<path d="M60.7895 106.525H55.6357V85.1731H60.7895V88.6368C62.339 86.1117 64.8653 84.7485 67.998 84.7485C68.3797 84.7485 68.8176 84.7485 69.0759 84.8379V90.4357C68.4696 90.2234 67.706 90.0893 66.8415 90.0893C63.0239 90.0893 60.7895 92.0558 60.7895 95.6424V106.525Z" fill="white" fill-opacity="0.7"/>
<path d="M69.2891 95.8435C69.2891 89.3071 73.9712 84.7373 80.2365 84.7373C86.5019 84.7373 91.1728 89.3071 91.1728 95.8435C91.1728 102.38 86.4907 106.95 80.2365 106.95C73.9824 106.95 69.2891 102.38 69.2891 95.8435ZM86.0191 95.8435C86.0191 91.9999 83.5264 89.4412 80.2253 89.4412C76.9242 89.4412 74.4316 91.9999 74.4316 95.8435C74.4316 99.687 76.9242 102.246 80.2253 102.246C83.5264 102.246 86.0191 99.687 86.0191 95.8435Z" fill="white" fill-opacity="0.7"/>
<path d="M98.2577 106.525H93.104V85.1731H98.2577V88.6368C99.8072 86.1117 102.334 84.7485 105.466 84.7485C105.848 84.7485 106.286 84.7485 106.544 84.8379V90.4357C105.938 90.2234 105.174 90.0893 104.31 90.0893C100.492 90.0893 98.2577 92.0558 98.2577 95.6424V106.525Z" fill="white" fill-opacity="0.7"/>
<path d="M120.568 103.363C119.199 105.877 116.706 106.95 113.742 106.95C110.048 106.95 106.533 105.117 106.533 100.804C106.533 91.62 120.479 95.7206 120.479 91.4524C120.479 89.7876 118.761 88.8044 116.526 88.8044C114.168 88.8044 112.54 90.0446 112.54 92.4357H107.173C107.173 86.8826 111.721 84.7485 116.526 84.7485C121.332 84.7485 125.621 86.6703 125.621 91.6647V106.525H120.557V103.363H120.568ZM114.82 102.681C117.818 102.681 120.568 100.972 120.568 97.7318V96.7485C117.133 98.1564 111.81 97.7318 111.81 100.469C111.81 101.966 113.102 102.693 114.82 102.693V102.681Z" fill="white" fill-opacity="0.7"/>
<path d="M33.9315 106.525L31.0009 96.6257H9.58877L6.70312 106.525H12.1713L14.1586 100.48H26.7342L28.5869 106.525H33.9315Z" fill="white" fill-opacity="0.7"/>
<path d="M23.8484 72.2346H16.6511L10.5317 93.229L30.0463 93.2737L23.8484 72.2346ZM20.2778 76.6927L23.9382 89.419H16.9655L20.2778 76.6927Z" fill="white" fill-opacity="0.7"/>
<path d="M48.1242 13.8771L55.4225 18.2346L52.5705 21.0726L48.1129 13.8771H48.1242ZM57.612 18.0894L44.7669 10.5363L44.6883 10.6145L52.4246 23.2514L57.612 18.0894ZM91.9141 13.9441L87.4565 21.1397L84.6046 18.3017L91.9029 13.9441H91.9141ZM82.4263 18.1564L87.6137 23.3184L95.3499 10.6816L95.2713 10.6034L82.4263 18.1564ZM48.4161 57.6648L52.8737 50.4693L55.7257 53.3073L48.4273 57.6648H48.4161ZM57.9039 53.4525L52.7165 48.2905L44.9803 60.9274L45.0589 61.0056L57.9039 53.4525ZM92.2061 57.5978L84.9077 53.2402L87.7597 50.4022L92.2173 57.5978H92.2061ZM82.7182 53.3855L95.5633 60.9385L95.6419 60.8603L87.9057 48.2235L82.7182 53.3855ZM101.335 35.7318L93.0819 37.7654V33.7654L101.335 35.7318ZM91.6222 39.4413L106.073 35.7318V35.5866L91.6222 32.1006V39.4413ZM39.1416 35.5866L47.3943 33.6201V37.6201L39.1416 35.5866ZM48.854 39.2961V31.9553L34.4033 35.4413V35.5866L48.854 39.2961ZM69.9518 66.6034L67.9756 58.3911H71.9953L69.9518 66.6034ZM73.6795 56.9385H66.3026L69.8058 71.3184H69.9518L73.6795 56.9385ZM70.1763 4.71508L72.2199 12.9274H68.2002L70.1763 4.71508ZM73.9041 14.3799L70.1763 0H70.0304L66.5272 14.3799H73.9041ZM60.1047 49.7542L56.0176 45.7542L62.8106 35.6536L56.0176 25.486L60.1047 21.486L70.2549 28.1676L80.4726 21.486L84.4923 25.486L77.7778 35.6536L84.4923 45.7542L80.4726 49.7542L70.2549 43.0726L60.1047 49.7542ZM70.2549 44.6704L80.6186 51.5754L86.3113 45.9106L79.3722 35.6648L86.3113 25.352L80.6186 19.6872L70.2549 26.5922L59.8913 19.6872L54.1986 25.352L61.1376 35.6648L54.1986 45.9106L59.8913 51.5754L70.2549 44.6704ZM87.479 38.4916L75.5771 40.8156L73.0957 52.8045H67.3244L64.9889 40.8939L53.0197 38.4916V32.7486L64.9889 30.4916L67.3244 18.5028H73.0957L75.5771 30.4916L87.479 32.7486V38.4916ZM66.2352 17.0615L63.8212 29.2626L51.56 31.6648V39.6536L63.8212 42.0559L66.2352 54.257H74.2634L76.6775 42.0559L88.9386 39.6536V31.6648L76.6775 29.2626L74.2634 17.0615H66.2352Z" fill="white" fill-opacity="0.7"/>
<path d="M0.314389 114.368H12.1489L11.8345 115.933H6.82674L2.59371 135.709H0.774745L4.97409 115.933H0L0.314389 114.368Z" fill="white" fill-opacity="0.7"/>
<path d="M21.985 129.195H10.0944V129.598C10.0944 132.525 11.8909 134.436 14.6418 134.436C16.8088 134.436 18.5267 133.24 19.3576 131.452H21.3338C20.3008 134.1 17.8755 136.011 14.6418 136.011C10.7568 136.011 8.32031 133.452 8.32031 129.631C8.32031 125.195 11.1498 121.207 15.8432 121.207C19.7057 121.207 22.1085 123.765 22.1085 127.586C22.1085 128.123 22.0524 128.67 21.9963 129.207L21.985 129.195ZM10.2291 127.944H20.3233V127.598C20.3233 124.614 18.5267 122.76 15.832 122.76C12.8004 122.76 10.7681 125.039 10.2291 127.944Z" fill="white" fill-opacity="0.7"/>
<path d="M35.5708 127.151C35.5146 124.447 33.5946 122.771 30.9672 122.771C27.2731 122.771 25.0724 126.1 25.0724 129.598C25.0724 132.525 26.9363 134.436 29.7321 134.436C32.5279 134.436 34.6164 132.469 35.2564 129.743H37.1202C36.3455 133.329 33.7181 136 29.7433 136C25.7685 136 23.3096 133.441 23.3096 129.62C23.3096 125.184 26.1728 121.195 30.9784 121.195C34.7511 121.195 37.2999 123.531 37.356 127.139H35.582L35.5708 127.151Z" fill="white" fill-opacity="0.7"/>
<path d="M40.0397 135.709H38.1758L42.7232 114.369H44.5871L42.4986 124.19C43.7899 122.168 45.6762 121.207 47.731 121.207C50.9647 121.207 52.997 123.598 52.0763 127.899L50.4145 135.721H48.5506L50.2124 127.955C50.9535 124.48 49.4938 122.693 46.9562 122.693C44.4187 122.693 42.465 124.369 41.6677 128.045L40.0397 135.732V135.709Z" fill="white" fill-opacity="0.7"/>
<path d="M62.3724 114.369H64.9998L70.5241 135.709H68.7837L67.2679 129.676H60.1156L58.5997 135.709H56.8594L62.3836 114.369H62.3724ZM66.8637 128.112L63.6861 115.508L60.5085 128.112H66.8525H66.8637Z" fill="white" fill-opacity="0.7"/>
<path d="M86.8726 135.709H84.7617L80.7532 122.905L76.7448 135.709H74.6563L70.2549 121.486H71.9391L75.7118 134.29L79.7202 121.486H81.8087L85.8172 134.29L89.5898 121.486H91.2741L86.8726 135.709Z" fill="white" fill-opacity="0.7"/>
<path d="M102.323 132.804C101.323 135.028 99.1787 135.989 96.978 135.989C94.2271 135.989 91.9702 134.737 91.9702 132.067C91.9702 125.832 102.289 129.62 102.289 125.575C102.289 123.586 100.571 122.592 98.2805 122.592C95.8776 122.592 94.1372 123.787 94.1372 126.145H92.3969C92.3969 122.558 95.2601 121.195 98.2917 121.195C101.323 121.195 104.007 122.424 104.007 125.631V135.709H102.323V132.804ZM97.2587 134.536C99.8299 134.536 102.323 132.916 102.323 129.843V128.078C99.8299 129.843 93.7106 128.335 93.7106 131.977C93.7106 133.709 95.1702 134.536 97.2587 134.536Z" fill="white" fill-opacity="0.7"/>
<path d="M109.07 135.709H107.353V121.486H109.07V124.648C110.047 122.313 111.956 121.207 114.336 121.207C114.797 121.207 115.257 121.262 115.628 121.374V123.195C115.167 123.028 114.628 122.938 114.022 122.938C110.934 122.938 109.07 124.815 109.07 128.827V135.709Z" fill="white" fill-opacity="0.7"/>
<path d="M128.282 132.693C127.137 134.737 125.138 135.989 122.758 135.989C118.873 135.989 115.92 132.938 115.92 128.592C115.92 124.246 118.862 121.195 122.758 121.195C125.127 121.195 127.137 122.447 128.282 124.491V114.357H130V135.698H128.282V132.681V132.693ZM117.649 128.592C117.649 132.089 119.94 134.424 122.971 134.424C126.003 134.424 128.293 132.089 128.293 128.592C128.293 125.095 126.003 122.76 122.971 122.76C119.94 122.76 117.649 125.095 117.649 128.592Z" fill="white" fill-opacity="0.7"/>
</g>
<defs>
<clipPath id="clip0_680_23755">
<rect width="130" height="136" fill="white"/>
</clipPath>
</defs>
</svg>
